<?xml version="1.0" standalone="no"?>
<!DOCTYPE svg PUBLIC "-//W3C//DTD SVG 20010904//EN"
 "http://www.w3.org/TR/2001/REC-SVG-20010904/DTD/svg10.dtd">
<svg version="1.0" xmlns="http://www.w3.org/2000/svg"
 width="2000.000000pt" height="2000.000000pt" viewBox="0 0 2000.000000 2000.000000"
 preserveAspectRatio="xMidYMid meet">

<g transform="translate(0.000000,2000.000000) scale(0.100000,-0.100000)"
fill="#000000" stroke="none">
<path d="M1746 19976 c405 -534 689 -863 849 -983 124 -94 252 -135 314 -101
40 21 56 88 42 167 -29 155 -142 325 -486 730 l-180 211 -43 0 c-24 0 -42 -4
-40 -9 3 -8 74 -94 301 -358 223 -262 350 -455 377 -578 12 -52 8 -65 -12 -44
-27 28 -173 186 -222 239 -28 31 -78 85 -111 120 -58 63 -195 214 -239 264
-12 13 -91 101 -176 195 -154 170 -155 171 -197 171 -24 0 -43 -3 -43 -6 0 -7
31 -42 129 -149 25 -27 107 -117 181 -200 74 -82 159 -177 190 -210 30 -33 98
-107 150 -165 87 -97 214 -233 250 -270 8 -8 21 -23 29 -32 12 -17 11 -17 -20
-6 -159 54 -411 312 -810 833 l-154 200 -49 3 -49 3 19 -25z"/>
<path d="M3134 19974 c-10 -40 4 -185 23 -245 54 -167 205 -278 472 -345 164
-42 346 -47 696 -19 l91 8 27 -264 27 -263 -25 -20 c-29 -24 -55 -83 -55 -123
1 -40 33 -106 64 -130 l26 -21 -25 -53 c-91 -200 -37 -643 100 -823 l26 -34
-26 -37 c-29 -44 -34 -128 -10 -174 14 -28 63 -75 85 -83 8 -2 70 -462 70
-517 0 -4 -34 -15 -76 -25 -123 -29 -246 -97 -329 -180 -147 -150 -215 -332
-231 -625 l-7 -121 -33 -20 c-51 -30 -74 -74 -74 -145 0 -118 72 -189 185
-183 73 4 131 32 163 79 20 29 23 44 20 100 -5 88 -37 139 -104 165 l-47 18 6
130 c6 151 29 253 82 365 47 98 160 212 257 259 83 39 186 69 197 56 4 -5 20
-119 35 -254 15 -135 29 -256 31 -270 4 -20 -2 -29 -28 -45 -97 -61 -87 -244
18 -302 68 -38 161 -25 222 31 30 27 36 41 41 84 2 28 1 67 -2 87 -8 38 -69
115 -92 115 -8 0 -14 3 -14 8 -1 4 -16 133 -34 287 -23 198 -30 282 -22 288
15 11 167 -2 235 -19 161 -41 295 -146 364 -286 34 -68 85 -243 100 -338 5
-33 2 -37 -34 -58 -74 -42 -100 -149 -60 -238 26 -58 72 -87 142 -92 171 -13
263 119 188 269 -22 43 -38 58 -86 74 l-37 13 -23 107 c-45 218 -115 372 -221
486 -110 119 -247 172 -479 185 -62 4 -113 8 -113 9 0 2 -13 117 -30 258 l-30
255 40 40 c36 36 40 44 40 91 0 65 -18 109 -59 144 l-33 27 20 33 c39 63 56
144 55 272 -1 137 -21 277 -58 392 -26 83 -85 187 -111 197 -13 5 -11 12 15
41 37 42 46 72 37 128 -9 56 -39 102 -81 121 -19 9 -35 18 -35 19 0 1 -11 108
-25 237 -14 129 -25 247 -25 262 0 31 -18 26 212 58 280 39 489 107 650 213
155 101 230 186 262 296 9 30 16 58 16 63 0 4 -18 8 -40 8 -35 0 -40 -3 -40
-22 0 -75 -93 -188 -222 -274 -204 -136 -392 -187 -928 -250 -198 -24 -273
-28 -480 -28 -234 0 -249 1 -345 27 -126 34 -270 103 -329 157 -25 23 -58 68
-73 99 -23 48 -27 72 -31 174 l-4 117 -34 0 c-28 0 -35 -4 -40 -26z"/>
<path d="M6395 19953 c-38 -25 -71 -47 -73 -48 -2 -1 -48 -160 -103 -351 -164
-570 -215 -803 -226 -1034 -10 -213 26 -349 113 -430 66 -61 104 -74 219 -74
119 0 176 14 369 91 195 77 212 78 406 15 226 -74 295 -92 390 -99 161 -11
301 34 545 176 250 146 277 153 595 156 252 2 287 8 394 62 68 35 151 116 182
178 33 69 42 174 21 271 -23 106 -67 208 -176 409 -54 99 -122 225 -151 280
-29 55 -95 178 -148 273 l-95 172 -45 0 -44 0 16 -25 c15 -23 15 -25 -17 -48
-102 -77 -268 -164 -421 -221 -113 -43 -360 -108 -390 -104 -18 3 -22 15 -32
93 -6 50 -14 100 -18 111 -6 19 -2 22 39 28 86 13 390 94 480 127 l90 34 -107
3 c-90 2 -121 -1 -195 -23 -114 -32 -504 -109 -658 -129 -264 -34 -603 -46
-751 -25 -43 6 -102 20 -132 31 -67 25 -64 29 69 98 l94 49 -85 0 c-84 0 -86
0 -155 -46z m2308 -190 c64 -116 239 -442 343 -638 74 -141 116 -271 118 -365
1 -63 -4 -84 -27 -132 -38 -78 -123 -145 -232 -181 -16 -5 -147 -13 -290 -17
-345 -9 -340 -8 -630 -173 -231 -131 -312 -160 -455 -160 -97 0 -147 12 -385
90 -163 53 -173 55 -255 51 -74 -4 -103 -12 -225 -61 -175 -69 -251 -90 -341
-90 -126 -1 -196 51 -236 175 -44 135 -20 431 62 759 31 124 141 521 146 528
2 2 40 -10 86 -27 46 -16 128 -39 184 -51 102 -21 375 -43 449 -36 22 2 90 6
150 9 169 8 511 57 713 102 240 54 510 164 677 279 44 29 81 54 82 54 1 1 31
-52 66 -116z m-2158 -11 c203 -35 658 -15 985 43 47 8 88 15 91 15 4 0 11 -26
17 -57 14 -72 26 -173 21 -173 -2 0 -83 -11 -179 -24 -480 -67 -764 -59 -1042
30 -59 19 -109 38 -112 43 -3 4 2 30 10 57 8 27 19 66 24 86 l10 36 58 -23
c31 -13 84 -28 117 -33z"/>
<path d="M7422 19724 c-33 -23 -31 -86 4 -113 31 -25 55 -26 93 -6 44 22 50
74 13 118 -19 22 -80 23 -110 1z"/>
<path d="M9500 19981 c-26 -49 0 -136 53 -175 20 -15 42 -20 80 -20 97 2 147
49 147 138 0 67 -6 76 -53 76 -39 0 -40 -1 -23 -19 26 -29 25 -87 -2 -114 -32
-32 -106 -31 -133 2 -23 28 -25 78 -3 109 15 21 14 22 -20 22 -25 0 -38 -6
-46 -19z"/>
<path d="M3314 19955 c-20 -52 36 -175 116 -255 90 -90 234 -150 361 -150 60
0 74 10 57 43 -7 13 -21 17 -62 17 -99 0 -225 51 -302 122 -54 50 -82 94 -109
173 -21 60 -49 83 -61 50z"/>
<path d="M3490 19955 c-31 -37 32 -142 115 -190 55 -33 132 -44 141 -21 8 21
-13 46 -38 46 -31 0 -115 48 -136 78 -12 15 -24 41 -28 58 -11 43 -32 55 -54
29z"/>
<path d="M419 19931 c-25 -25 -29 -37 -29 -81 0 -46 4 -56 34 -86 30 -30 40
-34 86 -34 46 0 56 4 86 34 29 29 34 41 34 81 0 40 -5 52 -34 81 -31 31 -40
34 -91 34 -49 0 -60 -4 -86 -29z m129 -37 c15 -10 22 -25 22 -48 0 -42 -15
-56 -62 -56 -46 0 -73 32 -62 74 11 45 60 60 102 30z"/>
<path d="M19699 19931 c-25 -25 -29 -37 -29 -81 0 -46 4 -56 34 -86 30 -30 40
-34 86 -34 46 0 56 4 86 34 29 29 34 41 34 81 0 40 -5 52 -34 81 -31 31 -40
34 -91 34 -49 0 -60 -4 -86 -29z m129 -37 c15 -10 22 -25 22 -48 0 -42 -15
-56 -62 -56 -46 0 -73 32 -62 74 11 45 60 60 102 30z"/>
<path d="M10965 19886 c-153 -31 -253 -84 -360 -191 -139 -139 -213 -316 -269
-647 -6 -34 -11 -39 -49 -49 -140 -38 -241 -145 -307 -326 -72 -200 -97 -404
-66 -537 43 -180 151 -298 367 -400 229 -108 712 -210 1055 -223 322 -12 526
42 659 172 68 66 101 138 131 282 31 147 44 410 24 494 -25 106 -91 204 -168
251 -21 12 -38 23 -40 24 -2 1 7 62 19 136 29 173 32 429 6 527 -62 229 -253
383 -578 465 -130 33 -318 43 -424 22z m250 -137 c351 -43 535 -168 601 -409
13 -47 18 -103 18 -200 1 -126 -19 -326 -33 -334 -3 -2 -64 11 -136 29 -247
62 -998 185 -1132 185 -62 0 -61 -1 -38 112 55 265 180 481 322 555 126 66
229 83 398 62z"/>
<path d="M16248 19860 c-294 -49 -529 -251 -694 -594 -124 -257 -184 -536
-184 -846 1 -501 161 -855 462 -1023 l86 -48 -14 -62 c-26 -108 -52 -193 -179
-572 -75 -225 -134 -420 -150 -499 -63 -300 -3 -413 245 -460 152 -29 230 -18
300 42 41 34 80 100 95 157 25 102 36 254 50 685 15 492 24 617 47 631 7 5 29
9 48 9 54 0 147 27 229 66 321 151 577 545 671 1029 71 372 37 733 -95 1000
-109 220 -263 356 -495 437 -128 44 -315 65 -422 48z m352 -105 c160 -51 246
-100 341 -195 119 -117 185 -237 233 -421 136 -514 -32 -1203 -379 -1554 -232
-235 -521 -296 -818 -174 -164 68 -271 152 -353 279 -142 220 -208 569 -173
911 59 584 338 1045 699 1158 93 29 102 30 240 26 103 -2 140 -7 210 -30z
m-500 -2462 c41 -8 85 -17 98 -19 23 -5 23 -6 17 -92 -4 -48 -8 -97 -10 -110
-2 -12 -6 -161 -10 -330 -7 -391 -12 -490 -31 -635 -34 -268 -104 -326 -333
-278 -269 57 -272 148 -31 871 115 347 142 432 180 578 9 35 15 42 28 37 9 -4
51 -13 92 -22z"/>
<path d="M16191 19594 c-264 -71 -485 -344 -585 -722 -118 -446 -47 -903 176
-1138 63 -66 86 -83 183 -129 116 -57 222 -85 318 -85 369 0 684 347 798 880
19 88 23 137 23 305 1 206 -5 256 -46 385 -48 150 -139 290 -241 368 -67 52
-186 107 -284 133 -92 23 -261 25 -342 3z m154 -319 c0 -28 -6 -32 -160 -102
-88 -39 -170 -72 -182 -73 -29 0 -47 31 -30 54 18 25 317 156 347 153 20 -2
25 -7 25 -32z m218 -216 c6 -9 8 -23 5 -30 -8 -22 -576 -291 -598 -284 -21 7
-32 29 -24 49 7 18 564 287 588 284 10 -2 24 -10 29 -19z m332 -52 c13 -10 16
-21 12 -38 -6 -20 -94 -67 -551 -292 -479 -237 -546 -267 -566 -257 -14 7 -20
19 -18 33 2 18 98 69 548 294 300 149 548 272 551 272 3 1 13 -5 24 -12z
m-131 -339 c7 -13 8 -23 1 -34 -13 -21 -682 -344 -712 -344 -29 0 -47 31 -30
53 16 22 687 346 711 344 10 -1 24 -10 30 -19z m-39 -404 c9 -9 15 -24 13 -33
-2 -10 -109 -70 -283 -158 -339 -172 -330 -168 -355 -143 -12 12 -17 26 -13
36 5 14 591 312 615 314 4 0 14 -7 23 -16z m-81 -236 c7 -12 8 -23 1 -34 -12
-19 -284 -146 -304 -142 -23 5 -37 36 -25 55 13 21 272 142 298 140 10 -1 24
-10 30 -19z"/>
<path d="M15872 16633 c-34 -66 -125 -384 -138 -479 -21 -161 134 -266 266
-180 46 30 68 69 50 91 -18 21 -25 19 -57 -15 -78 -84 -200 -35 -196 78 1 59
31 177 89 355 36 110 43 141 34 153 -17 19 -37 18 -48 -3z"/>
<path d="M14721 19592 c-71 -35 -99 -116 -65 -187 24 -51 66 -75 132 -75 95 0
142 44 142 135 0 64 -23 103 -73 126 -53 23 -92 24 -136 1z m123 -64 c59 -52
33 -132 -46 -145 -32 -5 -41 -1 -68 25 -38 39 -40 83 -5 117 32 33 84 33 119
3z"/>
<path d="M12561 19456 c-32 -18 -50 -53 -51 -99 0 -78 39 -116 121 -117 49 0
61 4 88 29 27 25 31 36 31 81 0 46 -4 56 -34 86 -29 29 -40 34 -82 34 -27 -1
-60 -7 -73 -14z m115 -60 c26 -25 26 -55 0 -81 -29 -29 -56 -32 -84 -7 -34 29
-37 58 -8 87 20 20 32 24 53 19 16 -4 33 -12 39 -18z"/>
<path d="M1238 19346 c-54 -19 -127 -68 -176 -119 l-44 -44 -65 33 c-83 41
-181 59 -247 44 -113 -25 -195 -90 -383 -302 -52 -59 -131 -135 -174 -169 -54
-43 -79 -69 -79 -84 0 -26 182 -230 277 -310 203 -173 391 -245 642 -245 498
0 823 209 1047 674 71 147 70 162 -10 193 -93 36 -147 67 -325 187 -91 62
-192 122 -224 134 -67 25 -180 29 -239 8z m231 -138 c63 -30 113 -83 109 -116
-4 -39 -50 -43 -74 -7 -21 32 -81 64 -137 73 -33 6 -43 12 -45 30 -8 56 52 64
147 20z m-842 -755 c114 -73 185 -96 310 -101 101 -4 113 -6 119 -24 24 -75
-201 -75 -362 1 -77 36 -162 91 -169 109 -7 18 12 52 30 52 8 0 41 -17 72 -37z"/>
<path d="M19901 19230 c-72 -34 -153 -109 -298 -272 -52 -59 -131 -135 -174
-169 -53 -42 -79 -69 -79 -83 0 -28 179 -227 282 -315 95 -81 208 -151 301
-186 l67 -25 0 68 0 68 -47 23 c-65 31 -142 83 -148 99 -7 18 12 52 30 52 8 0
38 -15 67 -34 29 -18 63 -38 76 -45 l22 -12 0 431 c0 492 10 451 -99 400z"/>
<path d="M13640 19195 c-222 -31 -340 -71 -393 -134 -37 -45 -41 -70 -30 -180
6 -53 10 -141 9 -196 -3 -172 -36 -208 -328 -356 -167 -85 -189 -99 -259 -168
-99 -99 -119 -148 -119 -296 0 -108 15 -200 50 -307 36 -110 145 -319 236
-453 48 -71 118 -175 155 -230 96 -143 112 -187 112 -310 0 -172 -32 -318
-150 -680 -127 -392 -168 -604 -145 -765 27 -186 114 -291 314 -378 218 -94
437 -113 878 -77 l86 7 27 -263 27 -263 -25 -20 c-29 -24 -55 -83 -55 -123 1
-40 33 -106 65 -131 20 -16 25 -25 17 -34 -28 -35 -54 -147 -59 -258 -11 -232
49 -482 144 -607 l24 -32 -25 -38 c-30 -44 -36 -126 -11 -172 14 -28 63 -75
85 -83 8 -2 69 -456 70 -519 0 -3 -26 -11 -57 -18 -361 -79 -555 -351 -580
-813 l-6 -118 -33 -20 c-51 -30 -74 -74 -74 -145 0 -118 72 -189 185 -183 73
4 131 32 163 79 20 29 23 44 20 100 -5 88 -37 139 -104 165 l-47 18 6 130 c6
151 29 253 82 365 47 98 160 212 257 259 83 39 186 69 197 56 4 -5 20 -119 35
-254 15 -135 29 -256 31 -270 4 -20 -2 -29 -28 -45 -97 -61 -87 -244 18 -302
68 -38 161 -25 222 31 30 27 36 41 41 84 2 28 1 67 -2 87 -8 38 -69 115 -92
115 -8 0 -14 3 -14 8 -1 4 -16 133 -34 287 -23 198 -30 282 -22 288 12 8 134
1 206 -13 118 -22 248 -95 320 -178 45 -53 99 -159 125 -242 15 -51 56 -243
52 -246 -82 -42 -117 -94 -117 -171 1 -106 61 -174 161 -181 171 -13 263 119
188 269 -22 43 -38 58 -86 74 l-37 13 -23 107 c-45 218 -115 372 -221 486
-110 119 -247 172 -479 185 -62 4 -113 8 -113 9 0 2 -13 117 -30 258 l-30 255
40 40 c36 36 40 45 40 90 0 28 -5 63 -11 79 -12 34 -58 83 -76 83 -9 0 -6 12
11 38 43 65 60 144 59 277 -1 245 -65 486 -152 573 l-30 30 20 18 c38 34 52
74 46 126 -8 63 -38 111 -82 132 -19 9 -35 18 -35 19 0 1 -11 108 -25 237 -14
129 -25 247 -25 262 0 31 -18 26 210 58 342 47 570 134 756 288 133 110 181
215 171 381 -9 174 -84 353 -304 721 -155 260 -185 318 -243 465 -106 265
-103 305 38 645 101 245 150 412 172 590 20 167 2 338 -46 437 -54 112 -192
203 -369 244 -169 40 -302 81 -353 110 -85 48 -119 128 -147 342 -8 65 -21
130 -29 145 -53 102 -191 138 -416 107z m265 -78 c116 -45 121 -132 12 -182
-81 -38 -222 -59 -387 -59 -165 0 -216 13 -238 58 -27 54 19 106 121 140 42
14 161 37 252 49 66 9 212 5 240 -6z m128 -308 c30 -156 77 -228 185 -283 57
-29 184 -68 307 -95 83 -18 183 -50 212 -69 9 -5 4 -24 -18 -67 -70 -142 -79
-370 -19 -485 19 -39 72 -90 92 -90 9 0 22 8 27 19 8 15 3 27 -24 62 -38 49
-65 137 -65 212 0 70 28 193 57 250 l24 49 26 -23 c65 -62 97 -178 96 -354 -2
-203 -44 -369 -184 -716 -108 -266 -124 -349 -95 -474 8 -33 14 -61 13 -61
-18 -16 -154 -81 -224 -108 -228 -87 -484 -130 -773 -130 -211 -1 -302 9 -441
45 l-76 20 -6 87 c-8 141 -22 169 -263 526 -207 305 -294 528 -294 749 0 66 5
92 25 135 l25 54 29 -21 c145 -104 189 -301 110 -499 -17 -42 -19 -55 -9 -67
51 -62 120 89 120 262 0 147 -54 263 -161 350 l-40 31 48 37 c26 20 111 67
188 105 174 85 248 133 303 195 43 48 72 121 72 178 0 26 3 29 23 23 84 -25
142 -29 253 -19 126 12 159 27 138 61 -10 15 -28 17 -167 13 -144 -3 -159 -2
-201 19 -43 20 -46 25 -46 59 l0 38 52 -13 c135 -36 486 -3 598 55 30 15 57
29 60 30 3 0 14 -40 23 -90z m692 -2271 c44 -114 103 -226 239 -456 151 -254
226 -401 268 -525 27 -78 32 -107 32 -192 1 -88 -2 -107 -25 -156 -56 -118
-228 -247 -435 -325 -144 -54 -319 -87 -699 -131 -201 -23 -279 -28 -480 -27
-228 0 -245 2 -340 27 -55 15 -141 47 -192 71 -171 83 -231 166 -242 336 -11
170 18 316 138 690 95 296 107 339 131 469 11 63 20 116 20 117 0 2 21 -3 48
-11 141 -41 223 -50 477 -50 278 0 367 10 600 70 145 37 258 79 355 130 36 19
68 34 71 34 3 1 18 -32 34 -71z"/>
<path d="M14486 17754 c-4 -10 8 -33 34 -64 119 -143 143 -340 56 -459 -67
-90 -174 -131 -351 -134 -104 -2 -110 -3 -113 -24 -4 -29 19 -35 136 -34 209
1 343 73 410 219 64 140 27 334 -89 466 -42 47 -72 58 -83 30z"/>
<path d="M13517 17673 c-20 -19 -3 -42 48 -67 94 -46 162 -147 181 -266 4 -22
12 -44 19 -50 20 -17 45 -1 45 29 0 35 -27 125 -52 175 -50 98 -206 214 -241
179z"/>
<path d="M13000 17341 c0 -56 34 -159 71 -215 41 -62 113 -119 186 -147 65
-24 234 -36 313 -22 39 7 45 12 45 33 l0 24 -145 1 c-138 0 -148 1 -205 28
-72 34 -128 86 -160 148 -22 42 -31 72 -50 162 -4 21 -11 27 -30 27 -22 0 -25
-4 -25 -39z"/>
<path d="M12954 15255 c-20 -51 38 -177 116 -255 90 -90 234 -150 361 -150 60
0 74 10 57 43 -6 12 -21 17 -53 17 -108 0 -231 48 -311 122 -54 50 -82 94
-109 173 -21 60 -49 83 -61 50z"/>
<path d="M13130 15255 c-31 -37 32 -142 115 -190 55 -33 132 -44 141 -21 8 21
-13 46 -38 46 -31 0 -115 48 -136 78 -12 15 -24 41 -28 58 -11 43 -32 55 -54
29z"/>
<path d="M5180 18902 c-76 -76 -27 -203 78 -206 77 -2 132 45 132 114 0 73
-53 120 -135 120 -38 0 -52 -5 -75 -28z m134 -48 c24 -23 20 -70 -6 -88 -31
-22 -64 -20 -88 4 -42 42 -16 100 45 100 18 0 41 -7 49 -16z"/>
<path d="M17660 18799 c-56 -25 -79 -54 -80 -99 0 -19 42 -197 94 -395 l93
-360 -26 -22 -26 -21 58 -229 c32 -125 58 -233 57 -239 0 -6 -13 -17 -30 -24
-54 -22 -54 -23 4 -246 30 -115 102 -393 161 -618 58 -225 110 -415 116 -422
18 -22 137 -37 245 -31 252 16 504 108 618 226 l39 40 -157 608 c-86 334 -161
618 -166 631 -8 18 -17 22 -57 22 l-48 0 -60 233 -60 232 -31 3 -31 3 -77 277
c-77 275 -78 277 -120 316 -49 46 -155 101 -233 121 -85 22 -227 19 -283 -6z
m724 -806 c4 -16 9 -35 12 -44 4 -14 -6 -18 -58 -24 -107 -12 -288 -54 -406
-94 l-113 -39 -10 24 c-19 51 -13 60 64 92 142 59 346 110 448 111 54 1 57 0
63 -26z m65 -249 c18 -69 31 -128 28 -131 -3 -2 -59 -15 -124 -28 -126 -25
-251 -58 -372 -100 -41 -14 -75 -24 -77 -22 -1 1 -18 62 -37 135 l-36 132 36
15 c68 29 251 83 329 99 110 21 123 23 175 25 l46 1 32 -126z"/>
<path d="M3357 18463 c-3 -4 -14 -40 -26 -80 l-22 -72 -71 -3 c-41 -2 -73 -8
-75 -14 -2 -6 22 -30 53 -54 38 -29 54 -47 51 -59 -53 -178 -48 -196 40 -129
32 24 64 48 71 52 8 5 37 -12 76 -43 98 -78 110 -69 67 49 l-30 81 60 46 c33
26 58 51 56 57 -2 6 -39 13 -81 16 l-78 5 -27 75 c-25 68 -50 97 -64 73z"/>
<path d="M8984 17981 c-64 -28 -73 -134 -15 -178 9 -7 38 -13 64 -13 65 0 97
30 97 94 0 60 -30 96 -85 101 -22 3 -50 1 -61 -4z m80 -67 c26 -25 18 -54 -17
-67 -22 -8 -52 6 -61 28 -16 44 44 74 78 39z"/>
<path d="M1034 17770 c-155 -42 -387 -153 -801 -385 l-233 -130 0 -101 c0 -94
3 -110 36 -195 20 -52 58 -155 84 -229 26 -74 54 -139 62 -144 10 -6 42 1 99
23 87 33 481 151 506 151 9 0 12 -8 9 -22 -13 -60 -98 -570 -116 -696 -11 -79
-20 -169 -20 -201 0 -53 3 -62 39 -103 111 -125 418 -212 1011 -287 526 -67
864 -65 1002 4 47 25 86 63 97 99 14 43 46 331 72 659 12 152 27 277 31 277
16 0 265 -148 401 -237 97 -64 134 -83 150 -79 14 4 50 50 97 123 41 64 123
182 182 262 60 80 108 150 108 156 0 10 -413 408 -545 526 -222 198 -394 316
-509 348 -37 10 -47 7 -129 -30 -301 -135 -572 -162 -869 -84 -181 47 -327
121 -481 245 l-88 70 -62 -1 c-34 0 -94 -9 -133 -19z m203 -84 c159 -142 382
-252 613 -302 119 -26 410 -27 528 -1 97 21 219 62 317 106 l69 32 46 -17 c25
-9 48 -20 53 -23 12 -11 -42 -56 -113 -95 -202 -109 -548 -142 -919 -87 -308
47 -479 128 -662 314 -44 44 -79 84 -79 88 0 9 31 16 77 18 24 1 43 -8 70 -33z
m-173 -73 c187 -218 393 -330 710 -384 88 -16 182 -23 346 -26 196 -5 240 -3
346 15 186 32 323 85 412 161 24 20 50 40 57 45 24 18 221 -143 511 -417 l181
-171 -70 -80 c-60 -70 -197 -266 -252 -362 l-17 -31 -196 114 c-217 127 -241
134 -253 73 -4 -19 -17 -154 -29 -300 -23 -296 -48 -531 -55 -538 -3 -3 -42
-11 -87 -18 -310 -50 -773 -41 -1143 22 -236 40 -499 120 -674 206 l-103 51 7
61 c3 34 24 165 46 291 69 402 82 493 76 509 -10 26 -52 19 -271 -44 -114 -33
-211 -58 -216 -55 -4 2 -13 26 -20 52 -16 58 -106 299 -151 405 -18 43 -31 79
-28 82 13 13 346 194 469 256 141 71 314 148 336 149 5 1 36 -29 68 -66z
m-921 -440 c70 -157 172 -446 164 -466 -5 -12 -77 -40 -84 -33 -2 2 -21 53
-43 115 -22 61 -65 174 -96 252 -31 77 -54 142 -52 143 20 14 74 46 79 46 4 0
18 -26 32 -57z m3573 -522 c-52 -67 -202 -280 -236 -335 -14 -22 -28 -44 -31
-49 -4 -5 -27 5 -53 22 l-46 32 52 82 c86 139 165 249 224 315 l57 63 38 -37
38 -37 -43 -56z m-2875 -810 c316 -149 738 -237 1224 -255 152 -5 461 10 585
28 52 8 96 13 98 11 2 -1 -1 -18 -6 -36 -19 -77 -150 -112 -422 -112 -330 0
-959 82 -1250 163 -231 65 -340 132 -340 211 0 21 2 39 4 39 1 0 50 -22 107
-49z"/>
<path d="M6735 17503 c-214 -506 -451 -1024 -660 -1444 -30 -59 -46 -103 -42
-113 9 -22 205 -115 337 -160 141 -47 353 -100 530 -131 157 -27 444 -65 497
-65 37 0 38 3 67 101 32 110 101 184 172 184 86 0 128 -76 129 -235 l0 -105
40 -13 c66 -22 302 -69 440 -88 99 -14 196 -18 405 -18 243 0 290 2 404 22 70
13 154 31 185 41 l56 17 -1 50 c-1 27 -25 180 -53 339 -28 160 -89 552 -135
873 -46 321 -88 588 -93 593 -5 5 -142 25 -304 44 -610 73 -1249 179 -1693
281 -83 19 -160 34 -172 34 -19 0 -33 -27 -109 -207z m257 103 c353 -83 1094
-208 1583 -266 187 -23 349 -43 361 -45 17 -4 22 -16 31 -77 5 -40 8 -76 6
-80 -8 -15 -308 -6 -613 18 -321 25 -816 116 -1280 236 -129 33 -245 63 -258
65 -26 6 -25 12 19 110 15 35 32 63 38 63 5 0 56 -11 113 -24z m-51 -256 c83
-22 157 -40 165 -40 18 0 18 -9 -2 -78 -26 -88 -70 -168 -111 -199 -33 -26
-44 -28 -122 -28 -66 0 -102 6 -154 25 -37 13 -72 29 -76 35 -11 13 120 325
137 325 7 0 81 -18 163 -40z m296 -75 l22 -6 -35 -102 c-57 -163 -102 -235
-167 -269 -80 -42 -280 -23 -430 41 -45 19 -46 21 -35 46 8 18 16 24 27 19 91
-39 156 -57 228 -61 100 -7 152 9 208 65 46 46 66 84 100 195 22 69 31 87 44
83 9 -2 26 -7 38 -11z m276 -61 c101 -21 137 -33 137 -44 0 -8 -34 -183 -75
-390 -41 -206 -79 -415 -84 -464 -22 -195 32 -262 231 -283 68 -7 110 7 139
48 41 58 55 143 128 782 16 137 31 250 33 252 2 3 76 -4 163 -15 87 -11 162
-20 167 -20 4 0 8 -29 8 -64 0 -91 26 -230 56 -291 42 -90 131 -154 265 -191
49 -14 101 -19 227 -19 101 0 162 -4 162 -10 0 -39 89 -598 116 -727 5 -24 1
-27 -46 -43 -228 -76 -809 -70 -1220 13 l-85 17 -23 50 c-43 91 -101 135 -179
135 -51 0 -116 -34 -158 -82 -34 -40 -35 -41 -87 -34 -246 33 -655 124 -857
192 -138 46 -317 131 -314 149 1 6 54 120 119 255 64 135 138 292 164 350 29
63 54 104 62 103 7 -1 43 -13 80 -27 160 -61 357 -73 444 -28 83 43 147 140
206 311 16 47 31 92 34 100 2 8 13 11 27 9 12 -3 84 -18 160 -34z m347 -67
c63 -11 75 -16 78 -33 4 -30 -86 -805 -104 -888 -16 -78 -33 -111 -61 -118
-10 -2 -52 1 -93 8 -120 21 -138 61 -110 244 10 64 148 773 156 797 2 8 14 11
31 7 15 -3 62 -11 103 -17z m633 -159 c9 -151 59 -235 174 -292 86 -43 174
-59 284 -52 l97 6 5 -26 c3 -16 0 -28 -9 -31 -8 -3 -85 -3 -171 -1 -128 4
-169 8 -215 25 -158 58 -203 132 -223 371 l-7 82 30 0 29 0 6 -82z m494 69 c6
-7 53 -341 48 -345 -3 -3 -54 -6 -113 -6 -241 -2 -356 86 -369 281 l-6 78 219
-3 c120 -2 220 -4 221 -5z m-2707 -1009 c216 -107 519 -190 961 -264 l166 -28
-15 -47 -15 -47 -41 5 c-351 39 -688 105 -922 182 -94 31 -271 104 -286 119
-8 8 42 134 52 129 3 -1 48 -23 100 -49z m1708 -387 c225 -38 332 -46 647 -46
322 0 399 7 513 46 61 21 61 21 65 -61 l2 -54 -108 -22 c-124 -26 -314 -44
-456 -44 -212 0 -547 40 -736 88 l-70 18 -3 53 c-3 46 -1 53 13 47 9 -3 68
-15 133 -25z"/>
<path d="M7821 17374 c-28 -35 -26 -69 4 -99 28 -29 70 -32 103 -9 33 23 31
86 -4 113 -37 29 -78 27 -103 -5z"/>
<path d="M19855 17572 c-116 -61 -555 -304 -612 -339 -13 -7 -23 -19 -23 -25
0 -6 30 -85 66 -176 37 -90 88 -225 114 -300 26 -75 54 -141 62 -145 9 -6 51
4 124 30 60 22 178 60 262 84 l152 43 0 38 c0 21 -3 38 -6 38 -4 0 -76 -20
-161 -45 -85 -25 -158 -43 -162 -40 -5 2 -14 26 -21 52 -16 58 -106 299 -151
405 -18 43 -31 79 -28 82 11 10 336 189 427 235 l102 51 0 40 c0 22 -3 40 -7
40 -5 0 -66 -31 -138 -68z m-432 -399 c70 -157 172 -446 164 -466 -5 -12 -77
-40 -84 -33 -2 2 -21 53 -43 115 -22 61 -65 174 -96 252 -31 77 -54 142 -52
143 20 14 74 46 79 46 4 0 18 -26 32 -57z"/>
<path d="M10804 17297 c-134 -44 -276 -161 -330 -272 -25 -51 -30 -74 -32
-157 l-4 -96 -45 15 c-31 11 -69 14 -128 11 -72 -4 -95 -10 -160 -42 -98 -49
-201 -150 -247 -244 -30 -60 -33 -75 -32 -149 0 -73 4 -90 37 -155 57 -116
194 -242 324 -300 66 -29 169 -34 298 -13 139 22 241 23 286 1 19 -9 58 -36
86 -61 28 -25 60 -45 71 -45 36 0 259 -258 571 -660 289 -373 407 -515 545
-658 193 -199 312 -280 425 -289 73 -5 100 10 119 66 36 109 -36 278 -229 532
-32 42 -178 217 -325 390 -446 525 -720 878 -716 923 1 11 -17 57 -41 101 -56
108 -55 152 6 330 75 215 80 282 31 414 -55 146 -156 273 -266 331 -50 27 -76
34 -132 37 -41 1 -88 -3 -112 -10z m207 -93 c97 -49 198 -181 241 -316 28 -91
21 -163 -37 -332 -31 -93 -49 -163 -52 -211 -5 -67 -3 -78 28 -146 26 -56 30
-74 20 -77 -8 -3 -39 -18 -69 -34 -30 -15 -56 -27 -57 -26 -2 2 -21 48 -44
103 l-41 100 -128 105 c-70 58 -151 127 -181 155 -216 200 -238 415 -59 581
128 118 268 154 379 98z m-592 -511 c42 -21 65 -42 94 -83 20 -30 64 -82 96
-115 43 -44 80 -101 141 -213 l83 -152 93 -62 93 -61 -51 -58 c-29 -32 -56
-55 -62 -52 -6 4 -31 21 -56 39 -80 57 -167 67 -335 39 -49 -8 -129 -15 -176
-15 -75 0 -93 4 -145 30 -74 37 -179 124 -222 183 -108 151 -96 284 37 418
134 134 276 169 410 102z m470 -432 c34 -29 81 -101 81 -127 0 -3 -19 8 -42
25 -28 19 -55 51 -77 92 -35 65 -32 66 38 10z m407 -283 c105 -155 335 -445
599 -754 367 -431 409 -483 495 -609 62 -91 117 -202 130 -261 6 -26 9 -48 7
-51 -2 -2 -42 36 -89 84 -83 86 -123 129 -303 327 -49 55 -94 104 -100 110 -5
6 -91 101 -190 211 -99 110 -198 220 -221 245 -22 25 -81 90 -130 145 -49 55
-140 157 -203 227 -113 126 -114 128 -146 227 -30 92 -31 101 -16 114 20 18
92 56 107 57 6 0 33 -33 60 -72z m-210 -149 c26 -89 13 -71 254 -339 52 -59
129 -144 170 -190 75 -84 128 -142 230 -255 30 -33 91 -101 135 -150 44 -50
107 -119 141 -155 33 -36 107 -117 164 -180 57 -63 135 -149 174 -190 39 -41
80 -85 91 -98 l19 -23 -27 10 c-177 68 -388 280 -772 777 -305 394 -488 617
-613 746 l-65 67 19 27 c37 52 38 54 48 44 5 -5 19 -46 32 -91z"/>
<path d="M10782 17044 c-58 -29 -113 -92 -133 -151 -15 -48 -6 -140 19 -190
31 -59 105 -120 170 -139 70 -21 124 -12 193 29 94 56 140 157 118 255 -39
176 -217 271 -367 196z m173 -63 c115 -52 159 -191 88 -279 -77 -95 -191 -97
-275 -4 -72 80 -71 174 3 244 60 57 118 69 184 39z"/>
<path d="M10214 16571 c-103 -47 -160 -139 -152 -246 7 -77 35 -131 94 -184
127 -111 308 -79 388 70 90 164 -44 379 -234 379 -32 0 -72 -8 -96 -19z m154
-67 c72 -30 132 -111 132 -179 0 -111 -127 -201 -233 -166 -48 16 -113 89
-127 142 -21 78 23 163 105 200 49 23 75 23 123 3z"/>
<path d="M11225 15885 c-38 -37 -28 -87 21 -105 39 -15 93 21 94 63 0 24 -44
67 -70 67 -11 0 -32 -11 -45 -25z"/>
<path d="M12144 16571 c-33 -14 -54 -51 -54 -94 0 -86 110 -131 177 -73 39 34
40 103 2 142 -28 28 -89 40 -125 25z m84 -63 c21 -21 14 -58 -14 -68 -36 -14
-64 3 -64 39 0 15 3 31 7 34 11 11 58 8 71 -5z"/>
<path d="M17016 16519 c-35 -28 -56 -70 -56 -114 0 -131 162 -192 256 -98 35
35 36 37 32 101 -4 59 -7 67 -41 98 -34 31 -42 34 -101 34 -49 0 -69 -5 -90
-21z m154 -54 c39 -35 29 -113 -16 -134 -86 -39 -167 39 -123 120 21 40 101
48 139 14z"/>
<path d="M19990 16257 c0 -7 -11 -90 -25 -185 -34 -234 -33 -278 5 -322 l29
-35 1 278 c0 152 -2 277 -5 277 -3 0 -5 -6 -5 -13z"/>
<path d="M17145 15589 c-429 -44 -841 -168 -1098 -329 -52 -33 -94 -66 -96
-77 -1 -10 -46 -166 -98 -348 -160 -560 -210 -789 -220 -1020 -13 -287 62
-444 232 -490 117 -32 246 -9 480 86 181 73 203 73 395 11 226 -74 295 -92
390 -99 161 -11 292 31 540 174 260 150 282 155 600 158 194 1 245 5 290 20
87 27 149 63 207 117 162 154 150 371 -41 718 -35 63 -120 221 -189 350 -216
407 -347 626 -391 655 -30 20 -172 50 -331 70 -130 16 -528 19 -670 4z m745
-88 c69 -12 143 -26 165 -32 l39 -11 -39 -25 c-125 -77 -345 -152 -610 -207
-373 -77 -584 -104 -890 -113 -238 -7 -346 3 -442 39 -41 15 -51 23 -44 32 20
24 225 124 338 165 209 76 476 136 736 166 184 21 584 13 747 -14z m308 -182
c47 -76 51 -67 -53 -136 -147 -98 -368 -191 -591 -249 -177 -45 -184 -45 -184
4 0 37 -15 139 -24 170 -5 14 18 22 143 49 267 59 466 127 593 203 34 21 66
36 69 32 3 -4 24 -37 47 -73z m142 -248 c29 -52 108 -201 177 -330 69 -130
147 -276 174 -326 26 -49 62 -133 80 -185 74 -218 26 -361 -151 -450 -78 -40
-100 -43 -365 -50 -349 -10 -351 -11 -666 -192 -210 -121 -335 -157 -480 -138
-90 12 -109 17 -324 87 -163 53 -173 55 -255 51 -74 -4 -103 -12 -225 -61
-174 -69 -250 -89 -342 -89 -126 0 -195 51 -236 176 -44 134 -19 430 63 757
44 177 140 513 148 521 4 4 46 -6 93 -22 128 -45 266 -70 423 -79 142 -8 391
0 534 18 172 22 423 63 530 87 242 54 507 163 677 278 44 30 83 51 86 47 4 -3
30 -48 59 -100z m-2155 -19 c117 -20 223 -23 443 -12 227 11 406 29 546 55 43
8 82 15 86 15 4 0 12 -26 18 -57 14 -72 26 -173 21 -173 -2 0 -83 -11 -179
-25 -362 -50 -625 -56 -840 -19 -96 16 -305 78 -314 93 -3 4 2 30 10 57 8 27
19 66 24 86 l10 36 58 -23 c31 -13 84 -28 117 -33z"/>
<path d="M17060 15020 c-30 -30 -27 -83 6 -109 31 -25 55 -26 93 -6 44 22 50
74 13 118 -21 24 -86 23 -112 -3z"/>
<path d="M0 15340 c0 -23 5 -31 24 -36 79 -19 79 -139 0 -158 -19 -5 -24 -13
-24 -36 0 -28 2 -30 28 -24 78 19 112 61 112 139 0 74 -38 121 -112 139 -26 6
-28 4 -28 -24z"/>
<path d="M19210 15353 c-72 -37 -99 -120 -62 -192 26 -53 64 -75 125 -75 96 0
147 48 147 139 0 81 -46 130 -132 141 -30 4 -53 0 -78 -13z m132 -71 c28 -28
28 -87 0 -115 -32 -32 -106 -31 -133 2 -28 34 -25 86 7 118 22 21 32 25 66 20
23 -3 50 -14 60 -25z"/>
<path d="M10059 15231 c-25 -25 -29 -37 -29 -81 0 -46 4 -56 34 -86 30 -30 40
-34 86 -34 46 0 56 4 86 34 29 29 34 41 34 81 0 40 -5 52 -34 81 -31 31 -40
34 -91 34 -49 0 -60 -4 -86 -29z m129 -37 c26 -18 31 -74 8 -93 -45 -38 -124
4 -111 58 12 49 60 65 103 35z"/>
<path d="M1325 15185 c-150 -28 -252 -82 -360 -190 -139 -139 -213 -316 -269
-647 -6 -34 -11 -39 -49 -49 -140 -38 -241 -145 -307 -326 -72 -200 -97 -404
-66 -537 62 -261 270 -408 738 -521 774 -186 1275 -124 1422 177 44 90 76 267
83 454 6 176 -2 233 -44 317 -29 59 -83 119 -131 149 -21 12 -38 23 -40 24 -2
1 7 62 19 136 29 173 32 429 6 527 -60 222 -249 379 -552 459 -162 42 -318 52
-450 27z m250 -136 c351 -43 535 -168 601 -409 13 -47 18 -102 18 -200 1 -130
-19 -326 -34 -335 -3 -2 -27 2 -53 10 -93 28 -279 65 -592 119 -341 59 -536
86 -622 86 -62 0 -61 -1 -38 112 39 185 120 366 209 465 77 84 183 137 306
153 83 11 107 11 205 -1z"/>
<path d="M6615 15161 c-298 -48 -535 -249 -701 -595 -223 -465 -248 -1093 -58
-1495 83 -177 184 -289 336 -374 l86 -48 -14 -62 c-26 -108 -52 -193 -179
-572 -75 -225 -134 -420 -150 -499 -63 -300 -3 -413 245 -460 152 -29 230 -18
300 42 41 34 80 100 95 157 25 101 36 256 50 685 15 492 24 617 47 631 7 5 29
9 48 9 54 0 147 27 229 66 321 151 577 545 671 1029 102 528 -11 1018 -294
1270 -64 58 -196 132 -294 166 -129 45 -312 67 -417 50z m370 -115 c156 -53
225 -94 325 -195 182 -184 270 -445 270 -803 0 -455 -169 -910 -436 -1173
-145 -144 -296 -214 -475 -223 -164 -7 -309 33 -473 130 -325 192 -469 733
-355 1326 75 387 274 728 513 877 132 82 223 105 396 101 113 -3 135 -6 235
-40z m-540 -2452 c33 -7 71 -14 85 -14 51 -1 52 -6 41 -151 -6 -74 -16 -312
-21 -529 -15 -631 -44 -747 -193 -780 -47 -11 -68 -10 -157 8 -280 56 -283
143 -35 887 73 220 143 441 155 490 30 124 28 118 48 110 9 -3 44 -13 77 -21z"/>
<path d="M6654 14909 c-238 -17 -450 -185 -588 -466 -110 -223 -165 -494 -153
-758 17 -384 149 -647 386 -769 136 -70 216 -91 346 -91 136 0 222 25 332 97
223 146 386 419 465 781 19 88 22 131 22 312 0 196 -2 217 -27 310 -49 180
-141 338 -250 426 -29 23 -88 59 -132 80 -144 68 -251 88 -401 78z m51 -334
c0 -28 -6 -32 -160 -102 -88 -39 -170 -72 -182 -73 -29 0 -47 31 -30 53 19 27
308 156 342 154 26 -2 30 -6 30 -32z m221 -221 c4 -14 3 -29 -2 -34 -5 -5
-136 -70 -292 -145 -181 -87 -290 -134 -302 -130 -21 7 -32 29 -24 49 7 17
561 286 591 286 16 0 25 -8 29 -26z m325 -44 c24 -13 25 -42 2 -62 -10 -8
-257 -133 -549 -277 -470 -233 -534 -262 -553 -251 -15 7 -21 19 -19 33 2 18
98 69 548 294 300 149 546 272 548 272 2 1 12 -4 23 -9z m-127 -342 c7 -13 8
-23 1 -34 -13 -21 -682 -344 -712 -344 -29 0 -47 31 -30 53 16 22 687 346 711
344 10 -1 24 -10 30 -19z m-39 -404 c9 -9 15 -24 13 -33 -2 -10 -118 -74 -311
-171 l-309 -155 -18 23 c-11 13 -16 30 -13 39 5 13 592 311 615 313 4 0 14 -7
23 -16z m-81 -236 c7 -12 8 -23 1 -34 -12 -19 -284 -146 -304 -142 -23 5 -37
36 -25 55 13 21 272 142 298 140 10 -1 24 -10 30 -19z"/>
<path d="M6232 11933 c-16 -31 -90 -264 -112 -350 -33 -135 -35 -190 -8 -243
56 -110 187 -130 274 -44 37 38 40 60 12 78 -14 8 -24 3 -52 -26 -39 -41 -70
-49 -116 -34 -100 33 -97 122 16 469 36 110 43 141 34 153 -17 19 -37 18 -48
-3z"/>
<path d="M5081 14892 c-71 -35 -99 -116 -65 -187 24 -51 66 -75 132 -75 95 0
142 44 142 135 0 64 -23 103 -73 126 -53 23 -92 24 -136 1z m123 -64 c59 -52
33 -132 -46 -145 -32 -5 -41 -1 -68 25 -38 39 -40 83 -5 117 32 33 84 33 119
3z"/>
<path d="M2921 14756 c-32 -18 -50 -53 -51 -99 0 -75 40 -116 113 -117 53 0
101 20 117 49 5 11 10 41 10 66 0 40 -5 52 -34 81 -29 29 -40 34 -82 34 -27
-1 -60 -7 -73 -14z m115 -60 c26 -25 26 -55 0 -81 -29 -29 -56 -32 -84 -7 -34
29 -37 58 -8 87 20 20 32 24 53 19 16 -4 33 -12 39 -18z"/>
<path d="M10878 14646 c-54 -19 -127 -68 -176 -119 l-44 -44 -65 32 c-82 42
-172 59 -241 45 -114 -21 -198 -87 -389 -302 -52 -59 -131 -135 -174 -169 -54
-43 -79 -69 -79 -84 0 -26 182 -230 277 -310 203 -173 391 -245 642 -245 498
0 823 209 1047 674 71 147 70 162 -10 193 -93 36 -147 67 -325 187 -91 62
-192 122 -224 134 -67 25 -180 29 -239 8z m230 -138 c95 -44 147 -138 81 -146
-19 -2 -31 4 -43 22 -20 31 -83 65 -139 74 -33 6 -43 12 -45 30 -8 55 53 63
146 20z m-841 -755 c114 -73 185 -96 310 -101 101 -4 113 -6 119 -24 24 -75
-201 -75 -362 1 -77 36 -162 91 -169 109 -7 18 12 52 30 52 8 0 41 -17 72 -37z"/>
<path d="M3966 14490 c-204 -31 -307 -68 -359 -130 -36 -43 -41 -82 -27 -219
24 -222 3 -306 -90 -380 -27 -22 -132 -81 -232 -132 -167 -85 -189 -99 -259
-168 -99 -99 -119 -148 -119 -296 0 -108 15 -200 50 -307 36 -110 145 -319
236 -453 48 -71 118 -175 155 -230 97 -144 113 -187 113 -310 -1 -105 -29
-287 -65 -410 -11 -38 -50 -160 -86 -270 -87 -269 -130 -441 -144 -578 -31
-309 70 -475 356 -582 213 -81 401 -94 835 -59 l86 7 27 -264 27 -263 -25 -20
c-29 -24 -55 -83 -55 -123 1 -40 33 -106 64 -130 l26 -21 -25 -53 c-91 -201
-37 -644 102 -825 l24 -32 -26 -37 c-29 -44 -34 -128 -10 -174 14 -28 63 -75
85 -83 8 -2 70 -462 70 -517 0 -4 -34 -15 -76 -25 -123 -29 -246 -97 -329
-180 -147 -150 -215 -332 -231 -625 l-7 -121 -33 -20 c-51 -30 -74 -74 -74
-145 0 -118 72 -189 185 -183 73 4 131 32 163 79 20 29 23 44 20 100 -5 88
-37 139 -104 165 l-47 18 6 130 c7 151 30 255 82 365 47 98 160 212 257 259
83 39 186 69 197 56 4 -5 20 -119 35 -254 15 -135 29 -256 31 -270 4 -20 -2
-29 -28 -45 -98 -61 -86 -242 19 -302 67 -39 160 -25 221 31 30 27 36 41 41
84 2 28 1 67 -2 87 -8 38 -69 115 -92 115 -8 0 -14 3 -14 8 -1 4 -16 133 -34
287 -23 198 -30 282 -22 288 15 11 167 -2 235 -19 145 -37 282 -137 348 -254
41 -71 80 -190 103 -309 10 -53 18 -96 17 -97 -89 -46 -121 -98 -115 -185 8
-106 73 -169 177 -169 161 0 242 128 170 271 -22 43 -38 58 -86 74 l-37 13
-23 107 c-45 218 -115 372 -221 486 -110 119 -247 172 -479 185 -62 4 -113 9
-113 11 0 3 -13 119 -30 258 l-30 253 40 40 c36 36 40 45 40 90 0 28 -5 63
-11 79 -12 34 -58 83 -76 83 -9 0 -6 12 11 38 43 65 60 144 59 277 -1 241 -66
486 -152 573 l-30 30 20 18 c38 34 52 74 46 126 -8 63 -38 111 -82 132 -19 9
-35 18 -35 19 0 1 -11 108 -25 237 -14 129 -25 247 -25 262 0 32 -13 28 200
57 347 46 577 133 766 289 133 110 181 215 171 381 -9 174 -84 353 -304 721
-155 260 -185 318 -243 465 -102 257 -101 314 20 600 184 439 234 723 174 986
-37 165 -174 277 -399 330 -171 40 -303 81 -353 110 -85 48 -119 128 -147 342
-20 160 -40 194 -139 238 -69 30 -180 33 -340 9z m324 -83 c29 -14 80 -74 72
-85 -1 -1 -9 -16 -17 -32 -30 -58 -131 -90 -347 -111 -201 -20 -333 4 -349 64
-16 59 30 101 147 137 162 49 422 63 494 27z m103 -298 c30 -157 77 -228 185
-283 57 -29 184 -68 307 -95 83 -18 183 -50 212 -69 9 -6 5 -23 -17 -65 -44
-88 -63 -191 -58 -311 5 -114 27 -179 80 -233 36 -37 63 -42 78 -13 8 15 5 25
-20 53 -63 72 -84 198 -56 337 10 46 29 105 42 133 l25 49 26 -23 c65 -62 97
-178 96 -354 -2 -203 -44 -369 -185 -717 -96 -239 -116 -322 -100 -428 6 -41
13 -82 17 -90 13 -34 -228 -138 -437 -189 -205 -50 -331 -65 -553 -66 -208 0
-312 11 -446 46 l-76 20 -6 87 c-8 141 -22 169 -263 526 -206 303 -294 529
-294 749 0 66 5 92 25 135 l25 54 29 -21 c146 -104 192 -312 109 -494 -24 -53
-18 -79 20 -85 43 -7 92 139 92 275 0 147 -54 263 -161 350 l-40 31 48 37 c26
20 111 67 188 105 173 84 248 133 301 193 42 47 74 126 74 179 0 27 3 30 23
24 80 -24 151 -30 258 -19 121 12 154 27 133 61 -10 15 -28 17 -167 13 -144
-3 -159 -2 -201 19 -43 20 -46 25 -46 59 l0 38 52 -13 c135 -36 486 -3 598 55
30 15 57 29 60 29 3 1 13 -39 23 -89z m692 -2271 c44 -114 103 -226 239 -456
245 -413 319 -601 302 -763 -11 -108 -52 -178 -151 -258 -178 -145 -391 -225
-720 -270 -389 -54 -516 -65 -765 -65 -235 0 -249 1 -345 27 -126 34 -270 103
-329 157 -25 23 -58 68 -73 99 -27 54 -28 61 -27 216 0 188 12 243 120 581
100 312 121 388 144 513 11 63 20 115 20 117 0 1 32 -7 71 -17 39 -10 121 -26
183 -35 154 -23 491 -15 661 15 226 40 426 102 565 176 36 19 68 34 71 34 3 1
18 -32 34 -71z"/>
<path d="M4846 13055 c-3 -9 14 -41 42 -77 63 -83 94 -158 100 -239 8 -115
-32 -208 -116 -270 -67 -49 -115 -62 -262 -68 -129 -6 -135 -7 -138 -28 -4
-29 17 -34 135 -34 209 1 343 72 411 219 30 66 39 164 23 244 -30 142 -168
322 -195 253z"/>
<path d="M3877 12973 c-20 -19 -3 -42 48 -67 94 -46 162 -147 181 -266 4 -22
12 -44 19 -50 20 -17 45 -1 45 29 0 35 -27 125 -52 175 -50 98 -206 214 -241
179z"/>
<path d="M3360 12641 c0 -56 34 -159 71 -215 41 -62 113 -119 186 -147 65 -24
234 -36 313 -22 39 7 45 12 45 33 l0 24 -145 1 c-138 0 -148 1 -205 28 -72 34
-128 86 -160 148 -22 42 -31 72 -50 162 -4 21 -11 27 -30 27 -22 0 -25 -4 -25
-39z"/>
<path d="M3314 10555 c-20 -52 36 -175 116 -255 90 -90 234 -150 361 -150 60
0 74 10 57 43 -6 12 -21 17 -56 17 -103 0 -230 50 -308 122 -54 50 -82 94
-109 173 -21 60 -49 83 -61 50z"/>
<path d="M3490 10555 c-31 -37 32 -142 115 -190 55 -33 132 -44 141 -21 8 21
-13 46 -38 46 -31 0 -115 48 -136 78 -12 15 -24 41 -28 58 -11 43 -32 55 -54
29z"/>
<path d="M19987 14410 c-14 -96 -16 -99 -61 -111 -139 -38 -240 -145 -306
-326 -72 -200 -97 -404 -66 -537 42 -177 148 -295 356 -396 l85 -41 3 366 c4
569 -2 1108 -11 1045z"/>
<path d="M14820 14202 c-76 -76 -27 -203 78 -206 77 -2 132 45 132 114 0 73
-53 120 -135 120 -38 0 -52 -5 -75 -28z m134 -48 c24 -23 20 -70 -6 -88 -31
-22 -64 -20 -88 4 -42 42 -16 100 45 100 18 0 41 -7 49 -16z"/>
<path d="M8020 14099 c-58 -26 -80 -54 -79 -104 0 -22 42 -200 93 -395 l93
-355 -26 -22 -26 -21 58 -229 c32 -125 58 -233 57 -239 0 -6 -13 -17 -30 -24
-16 -7 -34 -18 -40 -25 -7 -8 37 -193 150 -630 89 -340 165 -624 170 -630 14
-17 111 -35 184 -35 245 0 533 93 664 215 l56 52 -157 609 c-87 335 -162 619
-167 632 -8 18 -17 22 -57 22 l-48 0 -60 233 c-59 229 -60 232 -88 235 -15 2
-31 11 -36 20 -4 9 -41 134 -81 277 -71 250 -75 261 -112 298 -47 45 -156 101
-235 122 -85 22 -227 19 -283 -6z m728 -818 c7 -21 12 -41 12 -44 0 -3 -28 -8
-62 -12 -109 -12 -284 -52 -403 -93 -64 -22 -117 -36 -119 -33 -2 3 -7 22 -11
42 l-7 36 74 31 c144 59 348 110 449 111 l56 1 11 -39z m61 -237 c18 -70 30
-129 27 -131 -2 -3 -49 -13 -103 -24 -124 -24 -263 -60 -377 -99 -49 -16 -91
-29 -92 -27 -1 1 -18 62 -37 135 -32 120 -34 133 -19 141 35 18 271 89 347
104 112 22 124 24 176 26 l47 1 31 -126z"/>
<path d="M12997 13763 c-3 -4 -14 -40 -26 -80 l-22 -72 -71 -3 c-41 -2 -73 -8
-75 -14 -2 -6 22 -30 53 -54 38 -29 54 -47 51 -59 -53 -178 -48 -196 40 -129
32 24 63 48 70 52 7 4 39 -14 77 -44 98 -77 110 -68 67 50 l-30 81 60 46 c33
26 58 51 56 57 -2 6 -39 13 -81 16 l-78 5 -27 75 c-25 68 -50 97 -64 73z"/>
<path d="M18624 13281 c-64 -28 -73 -134 -15 -178 9 -7 38 -13 64 -13 65 0 97
30 97 94 0 60 -30 96 -85 101 -22 3 -50 1 -61 -4z m80 -67 c26 -25 18 -54 -17
-67 -22 -8 -52 6 -61 28 -16 44 44 74 78 39z"/>
<path d="M10675 13070 c-150 -40 -379 -149 -730 -345 -115 -65 -243 -136 -283
-158 -41 -22 -76 -46 -79 -53 -3 -8 23 -82 57 -166 35 -84 86 -220 115 -303
29 -82 59 -154 67 -159 10 -6 46 3 111 27 95 36 469 147 494 147 9 0 12 -8 9
-22 -13 -60 -98 -570 -116 -696 -11 -79 -20 -169 -20 -201 0 -53 3 -62 39
-103 111 -126 420 -213 1016 -288 667 -83 978 -63 1078 72 25 34 46 196 84
640 15 180 31 328 36 328 15 0 265 -149 400 -237 97 -64 134 -83 150 -79 14 4
50 50 97 123 41 64 123 182 182 262 60 80 108 150 108 156 0 10 -413 408 -545
526 -216 193 -387 311 -502 345 -45 14 -47 13 -135 -26 -302 -136 -573 -163
-870 -85 -182 47 -326 120 -482 245 l-87 70 -62 -1 c-34 0 -93 -9 -132 -19z
m202 -83 c161 -143 383 -253 613 -303 119 -26 410 -26 528 -1 97 21 219 62
316 106 69 31 69 32 117 16 27 -9 51 -20 54 -24 7 -13 -46 -57 -115 -95 -202
-109 -548 -142 -918 -87 -308 46 -481 128 -663 314 -44 44 -79 84 -79 88 0 9
31 16 77 18 24 1 43 -8 70 -32z m-173 -74 c142 -166 302 -273 501 -336 185
-58 505 -90 755 -75 252 15 470 90 587 201 l32 30 43 -28 c107 -70 276 -217
525 -455 l122 -117 -30 -29 c-47 -45 -167 -207 -244 -331 l-69 -112 -25 16
c-14 9 -101 60 -194 115 -198 115 -217 119 -229 48 -4 -25 -19 -182 -33 -350
-25 -302 -43 -471 -50 -478 -9 -9 -178 -32 -316 -43 -347 -27 -820 13 -1154
97 -163 41 -366 116 -478 177 l-59 32 6 56 c4 30 20 134 36 230 68 395 92 558
87 573 -10 26 -50 19 -271 -44 -116 -33 -213 -57 -217 -53 -3 5 -23 60 -44
123 -21 63 -60 169 -87 235 -62 151 -71 175 -67 179 19 14 259 147 399 220
166 86 383 185 406 186 5 0 36 -30 68 -67z m-921 -440 c59 -133 167 -430 167
-459 0 -14 -15 -22 -66 -38 -19 -6 -24 3 -54 86 -18 51 -62 166 -97 256 -36
90 -63 165 -61 166 21 15 74 46 79 46 4 0 18 -26 32 -57z m3523 -591 c-51 -70
-121 -170 -156 -222 -35 -52 -65 -97 -66 -98 -1 -2 -23 10 -48 27 l-46 32 52
82 c106 171 169 256 247 340 l35 37 37 -36 37 -36 -92 -126z m-2867 -722 c227
-114 540 -201 883 -245 283 -36 724 -36 968 -1 52 7 96 12 98 11 1 -1 -1 -16
-4 -34 -13 -62 -102 -96 -292 -112 -160 -13 -384 1 -742 47 -527 66 -846 152
-948 253 -25 26 -32 41 -32 72 0 21 2 39 5 39 3 0 32 -13 64 -30z"/>
<path d="M16360 12768 c-215 -506 -437 -991 -645 -1409 -30 -59 -46 -103 -42
-113 9 -22 205 -115 337 -160 141 -47 353 -100 530 -131 157 -27 444 -65 497
-65 37 0 38 3 67 101 32 110 101 184 172 184 86 0 128 -76 129 -235 l0 -105
40 -13 c69 -23 304 -70 445 -89 170 -22 607 -25 745 -4 101 15 236 44 279 61
28 10 28 13 23 60 -3 27 -29 179 -57 337 -27 159 -88 550 -134 871 -46 321
-88 588 -93 593 -5 5 -142 25 -304 44 -610 73 -1249 179 -1693 281 -83 19
-160 34 -172 34 -19 0 -35 -31 -124 -242z m385 114 c456 -100 1308 -234 1761
-278 40 -3 76 -9 81 -13 10 -7 33 -141 26 -153 -8 -15 -347 -5 -613 17 -223
19 -560 73 -880 141 -147 31 -670 161 -677 168 -3 3 43 119 59 150 7 13 17 17
36 12 15 -3 108 -23 207 -44z m-158 -233 c87 -22 162 -45 167 -49 10 -10 -25
-123 -59 -190 -46 -90 -102 -118 -219 -107 -63 6 -172 40 -193 61 -8 8 6 50
55 168 37 87 72 158 79 158 7 0 83 -18 170 -41z m290 -74 l22 -6 -35 -102
c-75 -213 -129 -276 -250 -292 -63 -9 -186 10 -283 42 -110 37 -113 38 -99 69
8 17 16 23 27 18 134 -58 270 -79 346 -54 89 29 156 124 201 283 12 45 19 57
32 53 9 -2 27 -7 39 -11z m273 -61 c111 -23 140 -32 140 -45 0 -9 -27 -149
-59 -310 -79 -392 -89 -447 -101 -546 -21 -192 34 -259 232 -280 98 -10 142
22 172 127 22 76 31 144 80 574 24 207 45 379 48 381 2 2 76 -4 163 -15 87
-11 162 -20 165 -20 4 0 10 -48 13 -107 14 -222 68 -328 205 -397 95 -48 164
-60 340 -61 101 0 162 -4 162 -10 0 -39 89 -598 116 -727 5 -24 1 -27 -46 -43
-228 -76 -810 -69 -1220 13 l-85 17 -23 50 c-43 91 -101 135 -179 135 -50 0
-116 -34 -156 -81 -19 -21 -43 -39 -54 -39 -38 0 -418 70 -573 106 -85 20
-222 58 -305 85 -149 49 -332 135 -328 154 1 6 54 120 119 255 64 135 138 292
164 350 29 63 54 104 62 103 7 -1 43 -13 79 -27 154 -58 325 -72 423 -35 97
36 169 139 231 329 34 105 33 103 56 97 11 -3 82 -18 159 -33z m339 -65 c51
-8 85 -18 88 -26 3 -8 -11 -159 -31 -336 -76 -671 -79 -682 -167 -679 -75 3
-138 22 -159 49 -23 29 -26 97 -10 203 11 67 149 775 156 798 2 7 12 11 21 8
10 -3 56 -11 102 -17z m644 -161 c9 -151 59 -235 174 -292 87 -43 174 -59 284
-52 l97 7 5 -26 c3 -17 0 -28 -9 -32 -8 -3 -85 -3 -171 -1 -127 4 -169 9 -215
26 -158 58 -203 131 -223 370 l-7 82 30 0 29 0 6 -82z m494 69 c4 -5 53 -340
50 -343 -1 -2 -39 -6 -84 -10 -59 -5 -100 -2 -155 10 -163 36 -234 115 -245
272 l-6 79 219 -3 c120 -2 220 -4 221 -5z m-2697 -1014 c204 -99 504 -182 920
-254 102 -17 187 -33 189 -35 2 -2 -2 -23 -9 -48 l-12 -44 -41 5 c-353 39
-689 105 -923 182 -94 31 -271 104 -286 119 -8 8 42 135 52 129 3 -1 52 -25
110 -54z m1735 -388 c242 -37 418 -48 697 -42 252 5 337 15 435 51 48 17 47
18 58 -65 7 -46 7 -47 -27 -57 -62 -20 -197 -41 -335 -53 -239 -20 -562 2
-828 56 -193 40 -180 33 -183 94 -3 48 -1 53 15 47 10 -4 86 -18 168 -31z"/>
<path d="M17461 12674 c-28 -35 -26 -69 4 -99 28 -29 70 -32 103 -9 33 23 31
86 -4 113 -37 29 -78 27 -103 -5z"/>
<path d="M1164 12597 c-134 -44 -276 -161 -330 -272 -25 -51 -30 -74 -32 -157
l-4 -96 -45 15 c-31 11 -69 14 -128 11 -72 -4 -95 -10 -160 -42 -98 -49 -201
-150 -247 -244 -29 -59 -33 -76 -32 -147 0 -71 4 -89 36 -155 56 -117 193
-243 325 -302 65 -29 169 -34 298 -13 140 22 242 22 286 1 19 -9 58 -36 86
-61 28 -25 60 -45 71 -45 36 0 259 -258 571 -660 375 -484 588 -726 735 -836
125 -95 253 -136 315 -102 40 21 56 88 42 167 -29 156 -153 342 -496 741 -468
545 -792 960 -778 996 3 8 -14 51 -38 97 -58 110 -58 153 4 332 75 215 80 282
31 414 -55 146 -156 273 -266 331 -50 27 -76 34 -132 37 -41 1 -88 -3 -112
-10z m208 -93 c96 -48 200 -187 240 -318 27 -90 21 -160 -27 -296 -76 -215
-82 -295 -29 -404 23 -47 26 -60 15 -64 -8 -3 -39 -18 -69 -34 -30 -15 -56
-27 -57 -26 -2 2 -22 49 -45 104 l-41 101 -150 123 c-184 152 -258 229 -300
317 -29 59 -33 79 -34 148 0 105 30 170 117 251 129 118 268 155 380 98z
m-597 -508 c40 -18 63 -37 87 -73 18 -26 63 -79 99 -118 50 -52 85 -105 139
-205 98 -182 91 -173 191 -236 l88 -56 -52 -59 c-28 -32 -53 -59 -55 -59 -2 0
-18 11 -34 25 -86 72 -187 89 -360 61 -136 -22 -252 -21 -305 4 -110 49 -234
164 -282 262 -61 120 -35 232 78 348 130 132 269 169 406 106z m474 -435 c34
-29 81 -101 81 -127 0 -3 -19 8 -42 25 -28 19 -55 51 -77 92 -35 65 -32 66 38
10z m443 -334 c128 -180 333 -434 668 -827 215 -252 292 -347 353 -433 103
-145 156 -248 171 -330 7 -35 6 -37 -11 -26 -19 13 -109 109 -273 288 -52 57
-100 109 -105 115 -6 6 -138 153 -294 326 -156 173 -336 374 -401 445 -270
300 -260 287 -296 396 l-32 99 28 20 c26 18 87 49 100 50 3 0 44 -55 92 -123z
m-245 -99 c13 -45 34 -94 46 -108 12 -14 47 -52 77 -85 30 -33 89 -98 130
-145 41 -46 95 -107 120 -135 25 -27 61 -68 81 -90 20 -22 62 -69 95 -105 32
-36 97 -108 144 -160 268 -298 481 -531 584 -640 39 -41 77 -83 85 -92 12 -16
11 -17 -20 -6 -64 21 -174 102 -283 208 -120 117 -316 350 -583 695 -200 259
-384 482 -498 603 l-77 82 27 41 c18 25 32 36 38 30 5 -5 20 -47 34 -93z"/>
<path d="M1142 12344 c-96 -48 -148 -136 -140 -239 7 -75 33 -129 91 -182 54
-50 137 -78 201 -69 139 21 244 164 216 292 -40 179 -216 274 -368 198z m173
-63 c115 -52 159 -191 88 -279 -77 -95 -191 -97 -275 -4 -72 80 -71 174 3 244
60 57 118 69 184 39z"/>
<path d="M565 11866 c-166 -77 -194 -294 -55 -420 47 -42 85 -60 146 -71 89
-14 196 44 247 133 92 163 -41 382 -233 382 -37 0 -72 -8 -105 -24z m163 -62
c72 -30 132 -111 132 -179 0 -117 -135 -207 -243 -162 -45 20 -104 88 -117
139 -21 77 23 162 105 199 49 23 75 23 123 3z"/>
<path d="M1585 11185 c-38 -37 -28 -87 21 -105 39 -15 93 21 94 63 0 24 -44
67 -70 67 -11 0 -32 -11 -45 -25z"/>
<path d="M19805 12082 c-124 -43 -250 -154 -308 -271 -28 -58 -32 -75 -31
-146 0 -71 4 -89 36 -155 42 -86 122 -175 218 -240 86 -58 139 -80 215 -87
l65 -6 0 42 0 41 -52 0 c-86 1 -184 55 -289 162 -158 161 -159 318 -4 474 88
87 174 128 271 129 l74 0 0 38 0 37 -72 0 c-43 -1 -94 -8 -123 -18z"/>
<path d="M19845 11866 c-166 -77 -194 -294 -55 -420 50 -45 89 -62 158 -72
l52 -7 0 42 c0 40 -1 41 -35 41 -113 0 -216 130 -186 232 25 81 121 149 191
135 29 -6 30 -6 30 33 l0 40 -52 0 c-34 0 -71 -8 -103 -24z"/>
<path d="M2504 11870 c-33 -13 -54 -50 -54 -93 0 -86 110 -131 177 -73 23 20
28 32 28 71 0 40 -5 51 -33 76 -33 30 -75 37 -118 19z m84 -62 c21 -21 14 -58
-14 -68 -36 -14 -64 3 -64 39 0 15 3 31 7 34 11 11 58 8 71 -5z"/>
<path d="M7376 11819 c-35 -28 -56 -70 -56 -114 0 -131 162 -192 256 -98 35
35 36 37 32 101 -4 59 -7 67 -41 98 -34 31 -42 34 -101 34 -49 0 -69 -5 -90
-21z m154 -54 c39 -35 29 -113 -16 -134 -86 -39 -167 39 -123 120 21 40 101
48 139 14z"/>
<path d="M7505 10889 c-429 -44 -843 -169 -1101 -331 -80 -50 -86 -56 -99
-103 -8 -27 -53 -185 -100 -350 -149 -516 -201 -760 -212 -985 -10 -213 26
-349 113 -430 66 -61 104 -74 219 -74 119 0 176 14 369 91 197 78 210 78 421
10 262 -85 287 -91 415 -91 94 -1 129 3 189 22 82 26 202 84 324 156 232 138
273 148 587 151 192 2 245 5 290 20 87 27 149 63 207 117 162 154 150 371 -41
718 -35 63 -120 221 -189 350 -214 404 -347 626 -390 654 -31 21 -173 51 -327
71 -135 16 -531 19 -675 4z m630 -74 c130 -15 205 -28 279 -46 36 -10 37 -11
19 -24 -34 -24 -155 -82 -224 -108 -116 -44 -278 -85 -509 -131 -340 -67 -605
-96 -893 -96 -156 0 -257 13 -336 43 l-55 20 25 20 c40 32 207 112 329 157
213 78 518 145 775 169 151 14 450 12 590 -4z m423 -197 l42 -67 -33 -24
c-160 -120 -399 -227 -655 -293 -175 -45 -182 -45 -182 4 0 38 -15 140 -25
172 -5 15 7 20 82 34 285 56 530 138 668 224 28 17 53 28 56 24 3 -4 24 -37
47 -74z m105 -180 c24 -43 282 -522 383 -713 75 -141 116 -270 117 -365 1 -64
-3 -85 -26 -133 -38 -77 -124 -144 -232 -180 -16 -5 -147 -13 -290 -17 -345
-9 -343 -9 -625 -170 -228 -130 -324 -164 -465 -163 -93 1 -147 14 -380 90
-163 53 -173 55 -255 51 -74 -4 -103 -12 -225 -61 -174 -69 -250 -89 -342 -89
-127 0 -190 46 -234 172 -19 55 -22 86 -22 200 0 152 22 304 79 540 30 126
143 539 150 548 1 2 43 -10 92 -27 119 -41 256 -69 372 -77 52 -3 113 -7 135
-9 125 -9 473 23 770 70 353 56 672 171 890 320 44 29 81 54 82 54 0 1 12 -18
26 -41z m-2118 -87 c114 -20 221 -23 443 -12 224 12 385 28 542 56 47 8 88 15
91 15 4 0 11 -26 17 -57 13 -68 25 -173 20 -173 -2 0 -82 -11 -178 -24 -479
-67 -765 -59 -1042 30 -59 19 -109 38 -112 43 -3 4 2 30 10 57 8 27 19 66 24
86 l10 36 58 -23 c31 -13 84 -28 117 -34z"/>
<path d="M7420 10320 c-30 -30 -27 -83 6 -109 31 -25 55 -26 93 -6 44 22 50
74 13 118 -21 24 -86 23 -112 -3z"/>
<path d="M9570 10653 c-72 -37 -99 -120 -62 -192 27 -54 64 -75 125 -75 98 2
147 49 147 139 0 81 -46 130 -132 141 -30 4 -53 0 -78 -13z m132 -71 c28 -28
28 -87 0 -115 -32 -32 -106 -31 -133 2 -28 34 -25 86 7 118 22 21 32 25 66 20
23 -3 50 -14 60 -25z"/>
<path d="M419 10531 c-25 -25 -29 -37 -29 -81 0 -46 4 -56 34 -86 30 -30 40
-34 86 -34 46 0 56 4 86 34 29 29 34 41 34 81 0 40 -5 52 -34 81 -31 31 -40
34 -91 34 -49 0 -60 -4 -86 -29z m129 -37 c26 -18 31 -74 8 -93 -45 -38 -124
4 -111 58 12 49 60 65 103 35z"/>
<path d="M19699 10531 c-25 -25 -29 -37 -29 -81 0 -46 4 -56 34 -86 30 -30 40
-34 86 -34 46 0 56 4 86 34 29 29 34 41 34 81 0 40 -5 52 -34 81 -31 31 -40
34 -91 34 -49 0 -60 -4 -86 -29z m129 -37 c26 -18 31 -74 8 -93 -45 -38 -124
4 -111 58 12 49 60 65 103 35z"/>
<path d="M10965 10485 c-150 -28 -252 -82 -360 -190 -139 -139 -213 -316 -269
-647 -6 -34 -11 -39 -49 -49 -140 -38 -241 -145 -307 -326 -142 -393 -93 -679
145 -848 135 -97 309 -162 613 -229 437 -97 806 -112 1032 -40 145 45 251 129
305 238 63 129 108 528 75 667 -25 108 -98 213 -175 255 -19 10 -35 23 -35 29
0 5 9 64 20 130 63 375 23 611 -131 765 -189 189 -578 299 -864 245z m368
-156 c178 -36 285 -87 370 -178 95 -101 131 -213 131 -411 1 -129 -19 -326
-34 -335 -3 -2 -27 2 -53 10 -93 28 -279 66 -592 119 -359 62 -532 86 -617 86
-68 0 -67 -2 -43 112 23 110 63 223 112 319 137 268 356 352 726 278z"/>
<path d="M16260 10461 c-295 -42 -539 -247 -706 -595 -125 -260 -184 -535
-184 -856 1 -491 162 -846 462 -1013 l86 -48 -14 -62 c-26 -108 -52 -193 -179
-572 -140 -420 -180 -582 -173 -704 5 -84 20 -121 69 -169 44 -43 101 -68 199
-86 152 -29 230 -18 300 42 68 58 88 112 124 332 3 19 13 249 21 510 13 434
24 613 39 627 3 3 25 8 48 10 182 19 358 112 509 270 416 436 563 1285 314
1811 -107 225 -253 358 -491 448 -128 48 -308 71 -424 55z m365 -115 c153 -51
226 -95 320 -190 187 -188 275 -447 275 -808 0 -533 -234 -1061 -567 -1281
-242 -160 -530 -155 -816 14 -326 193 -470 731 -355 1328 83 438 318 798 604
927 96 42 166 54 304 50 113 -3 136 -7 235 -40z m-525 -2453 c41 -8 86 -17 99
-19 23 -5 23 -7 17 -71 -11 -108 -25 -470 -27 -681 -2 -400 -43 -623 -123
-676 -55 -35 -113 -40 -225 -18 -281 56 -284 143 -36 887 73 220 143 441 155
490 31 124 28 118 48 110 9 -4 51 -13 92 -22z"/>
<path d="M16191 10194 c-76 -20 -177 -76 -249 -137 -396 -335 -521 -1191 -237
-1627 86 -131 197 -213 370 -273 78 -27 104 -31 200 -31 66 -1 130 5 160 13
306 86 550 410 646 859 26 124 36 373 20 495 -33 244 -137 452 -284 565 -67
52 -186 107 -284 133 -92 23 -261 25 -342 3z m154 -319 c0 -28 -6 -32 -160
-102 -88 -39 -170 -72 -182 -73 -29 0 -47 31 -30 54 18 24 317 157 347 154 20
-3 25 -8 25 -33z m218 -216 c6 -9 8 -23 5 -30 -8 -22 -576 -291 -598 -284 -21
7 -32 29 -24 49 7 18 564 287 588 284 10 -2 24 -10 29 -19z m328 -49 c24 -13
25 -42 2 -62 -10 -8 -257 -133 -549 -277 -470 -233 -534 -262 -553 -251 -15 7
-21 19 -19 33 2 18 98 69 548 294 300 149 546 272 548 272 2 1 12 -4 23 -9z
m-127 -342 c7 -13 8 -23 1 -34 -13 -21 -682 -344 -712 -344 -29 0 -47 31 -30
53 16 22 687 346 711 344 10 -1 24 -10 30 -19z m-39 -404 c9 -9 15 -24 13 -33
-3 -14 -441 -245 -571 -300 -47 -20 -48 -20 -67 -1 -12 12 -17 26 -13 36 5 14
591 312 615 314 4 0 14 -7 23 -16z m-81 -236 c19 -30 -3 -46 -149 -114 -149
-69 -185 -75 -185 -30 0 13 6 28 13 34 25 21 273 131 291 129 10 -1 24 -10 30
-19z"/>
<path d="M15872 7233 c-40 -77 -142 -448 -142 -513 1 -141 153 -223 270 -146
46 30 68 70 50 91 -17 21 -22 20 -63 -20 -30 -29 -43 -35 -79 -35 -52 0 -85
21 -103 64 -21 51 0 160 81 409 36 110 43 141 34 153 -17 19 -37 18 -48 -3z"/>
<path d="M14721 10192 c-71 -35 -99 -116 -65 -187 24 -51 66 -75 132 -75 95 0
142 44 142 135 0 64 -23 103 -73 126 -53 23 -92 24 -136 1z m123 -64 c59 -52
33 -132 -46 -145 -32 -5 -41 -1 -68 25 -38 39 -40 83 -5 117 32 33 84 33 119
3z"/>
<path d="M12561 10056 c-32 -18 -50 -53 -51 -99 0 -78 39 -116 122 -117 50 0
60 4 87 31 26 26 31 38 31 81 0 44 -4 54 -34 84 -29 29 -40 34 -82 34 -27 -1
-60 -7 -73 -14z m115 -60 c26 -25 26 -55 0 -81 -29 -29 -56 -32 -84 -7 -34 29
-37 58 -8 87 20 20 32 24 53 19 16 -4 33 -12 39 -18z"/>
<path d="M1238 9946 c-54 -19 -127 -68 -176 -119 l-44 -44 -65 33 c-83 41
-181 59 -247 44 -113 -25 -195 -90 -383 -302 -52 -59 -131 -135 -174 -169 -54
-43 -79 -69 -79 -84 0 -26 182 -230 277 -310 203 -173 391 -245 643 -245 211
0 384 37 539 115 218 109 373 280 507 559 71 147 70 162 -10 193 -93 36 -147
67 -325 187 -91 62 -192 122 -224 134 -67 25 -180 29 -239 8z m231 -138 c63
-30 113 -83 109 -116 -4 -38 -49 -43 -72 -8 -20 31 -83 65 -139 74 -33 6 -43
12 -45 30 -8 55 53 63 147 20z m-835 -758 c115 -73 177 -93 303 -98 101 -4
113 -6 119 -24 10 -32 -18 -50 -87 -55 -117 -9 -253 32 -381 115 -64 41 -73
54 -58 83 15 27 33 24 104 -21z"/>
<path d="M19901 9830 c-72 -34 -153 -109 -298 -272 -52 -59 -131 -135 -174
-169 -53 -42 -79 -69 -79 -83 0 -28 179 -227 282 -315 95 -81 208 -151 301
-186 l67 -25 0 68 0 68 -37 18 c-58 27 -152 89 -158 104 -7 19 13 52 31 52 8
0 39 -15 67 -33 29 -19 63 -39 75 -46 l22 -12 0 431 c0 492 10 451 -99 400z"/>
<path d="M13640 9795 c-222 -31 -340 -71 -393 -134 -39 -46 -41 -68 -27 -216
22 -232 4 -310 -90 -384 -27 -22 -132 -81 -232 -132 -167 -85 -189 -99 -259
-168 -99 -99 -119 -148 -119 -296 0 -170 33 -291 134 -500 57 -116 110 -201
304 -483 128 -187 140 -259 92 -541 -21 -124 -36 -178 -127 -456 -183 -563
-197 -796 -58 -985 93 -127 351 -230 625 -249 116 -9 248 -4 480 14 l86 7 27
-263 27 -263 -25 -20 c-29 -24 -55 -83 -55 -123 1 -40 33 -106 64 -130 l26
-21 -25 -53 c-91 -201 -37 -644 102 -825 l24 -32 -26 -37 c-29 -44 -34 -128
-10 -174 14 -28 63 -75 85 -83 8 -2 70 -462 70 -517 0 -4 -34 -15 -76 -25
-123 -29 -246 -97 -329 -180 -147 -150 -215 -332 -231 -625 l-7 -121 -33 -20
c-51 -30 -74 -74 -74 -145 0 -118 72 -189 185 -183 73 4 131 32 163 79 20 29
23 44 20 100 -5 88 -37 139 -104 165 l-47 18 6 130 c6 151 29 253 82 365 47
98 160 212 257 259 83 39 186 69 197 56 4 -5 20 -119 35 -254 15 -135 29 -256
31 -270 4 -20 -2 -29 -28 -45 -97 -61 -87 -244 18 -302 68 -38 161 -25 222 31
30 27 36 41 41 84 2 28 1 67 -2 87 -8 38 -69 115 -92 115 -8 0 -14 3 -14 8 -1
4 -16 133 -34 287 -23 198 -30 282 -22 288 15 11 167 -2 235 -19 145 -37 282
-137 348 -254 41 -71 80 -190 103 -309 10 -53 18 -96 17 -97 -82 -42 -117 -94
-117 -171 1 -106 61 -174 161 -181 171 -13 263 119 188 269 -22 43 -38 58 -86
74 l-37 13 -23 107 c-45 218 -115 372 -221 486 -110 119 -247 172 -479 185
-62 4 -113 8 -113 9 0 2 -13 117 -30 258 l-30 255 40 40 c36 36 40 45 40 90 0
28 -5 63 -11 79 -13 34 -58 83 -77 83 -10 0 -8 8 8 29 55 78 76 218 59 395
-20 210 -78 393 -147 462 l-31 32 20 18 c38 34 52 74 46 126 -8 63 -38 111
-82 132 -19 9 -35 18 -35 19 0 1 -11 108 -25 237 -14 129 -25 247 -25 262 0
31 -18 26 210 58 342 47 570 134 756 288 133 110 181 215 171 381 -9 174 -84
353 -304 721 -155 260 -185 318 -243 465 -106 265 -103 305 38 645 74 180 105
269 136 399 50 206 57 382 20 542 -37 165 -174 277 -399 330 -171 40 -303 81
-353 110 -85 48 -119 128 -147 342 -8 65 -21 130 -29 145 -53 102 -191 138
-416 107z m294 -89 c52 -26 73 -73 51 -116 -29 -55 -128 -89 -330 -111 -193
-20 -337 1 -363 55 -28 56 18 106 133 142 173 53 430 69 509 30z m99 -297 c30
-157 77 -228 185 -283 57 -29 184 -68 307 -95 83 -18 183 -50 212 -69 9 -6 5
-23 -17 -65 -44 -88 -63 -191 -58 -311 5 -114 27 -179 80 -233 36 -37 63 -42
77 -14 8 15 3 27 -24 62 -38 49 -65 137 -65 212 0 70 28 193 57 250 l24 49 26
-23 c65 -62 97 -177 96 -354 -1 -202 -44 -369 -184 -716 -108 -266 -124 -349
-95 -474 8 -33 14 -61 13 -61 -18 -16 -154 -81 -224 -108 -230 -87 -484 -130
-778 -130 -216 -1 -298 8 -436 45 l-76 20 -6 87 c-8 141 -22 169 -263 526
-207 305 -294 528 -294 749 0 66 5 92 25 135 l25 54 29 -21 c85 -61 140 -162
148 -275 6 -79 -4 -137 -39 -223 -18 -43 -19 -55 -8 -68 51 -62 120 88 120
262 0 147 -54 263 -161 350 l-40 31 48 37 c26 20 111 67 188 105 174 85 248
133 303 195 42 48 72 121 72 177 0 15 2 28 5 28 2 0 30 -7 62 -15 60 -16 247
-14 307 3 38 10 54 35 37 55 -10 13 -37 14 -165 10 -145 -6 -156 -5 -200 16
-43 21 -46 26 -46 60 l0 38 52 -13 c135 -36 486 -3 598 55 30 15 57 29 60 29
3 1 13 -39 23 -89z m692 -2271 c43 -112 103 -226 220 -423 255 -427 339 -633
321 -796 -11 -108 -52 -178 -151 -258 -186 -151 -392 -226 -760 -276 -724 -97
-1012 -87 -1276 46 -100 50 -160 105 -196 178 -27 54 -28 61 -27 216 0 188 12
243 120 581 100 312 121 388 144 513 11 63 20 115 20 117 0 1 32 -7 71 -17 39
-10 121 -26 183 -35 154 -23 491 -15 661 15 226 40 426 102 565 176 36 19 68
34 71 34 3 1 18 -32 34 -71z"/>
<path d="M14486 8355 c-3 -9 14 -41 42 -77 63 -83 94 -158 100 -239 11 -160
-76 -282 -231 -323 -36 -10 -108 -18 -172 -19 -104 -2 -110 -3 -113 -24 -4
-29 19 -35 136 -34 209 1 343 73 410 219 30 66 39 164 23 244 -30 142 -168
322 -195 253z"/>
<path d="M13517 8273 c-20 -19 -3 -42 48 -67 94 -46 162 -147 181 -266 4 -22
12 -44 19 -50 20 -17 45 -1 45 29 0 35 -27 125 -52 175 -50 98 -206 214 -241
179z"/>
<path d="M13003 7923 c15 -164 123 -302 272 -350 58 -18 230 -28 295 -16 39 7
45 12 45 33 l0 24 -145 1 c-138 0 -148 1 -205 28 -72 34 -128 86 -160 148 -22
42 -31 72 -50 162 -4 21 -11 27 -32 27 -25 0 -26 -1 -20 -57z"/>
<path d="M12954 5855 c-20 -52 36 -175 116 -255 90 -90 234 -150 361 -150 60
0 74 10 57 43 -6 12 -21 17 -56 17 -103 0 -230 50 -308 122 -54 50 -82 94
-109 173 -21 60 -49 83 -61 50z"/>
<path d="M13130 5855 c-31 -37 32 -142 115 -190 55 -33 132 -44 141 -21 8 21
-13 46 -38 46 -31 0 -115 48 -136 78 -12 15 -24 41 -28 58 -11 43 -32 55 -54
29z"/>
<path d="M5180 9502 c-76 -76 -25 -207 79 -207 77 0 131 47 131 115 0 73 -53
120 -135 120 -38 0 -52 -5 -75 -28z m134 -48 c24 -23 20 -70 -6 -88 -31 -22
-64 -20 -88 4 -42 42 -16 100 45 100 18 0 41 -7 49 -16z"/>
<path d="M17660 9399 c-56 -25 -80 -54 -80 -99 0 -19 42 -197 94 -395 l93
-360 -26 -22 -26 -21 58 -229 c32 -125 58 -233 57 -239 0 -6 -13 -17 -30 -24
-16 -7 -34 -18 -40 -25 -7 -8 37 -193 150 -630 89 -340 165 -624 171 -631 18
-22 137 -37 245 -31 247 16 477 97 605 216 l53 48 -157 609 c-87 335 -162 619
-167 632 -8 18 -17 22 -57 22 l-48 0 -60 233 -60 232 -31 3 -31 3 -77 277
c-77 275 -78 277 -120 316 -49 46 -155 101 -233 121 -85 22 -227 19 -283 -6z
m729 -820 c7 -23 11 -42 9 -44 -2 -1 -55 -10 -118 -19 -133 -21 -265 -53 -379
-95 -44 -16 -83 -26 -85 -23 -2 4 -7 23 -11 43 l-7 36 74 30 c142 60 347 111
449 112 l56 1 12 -41z m60 -235 c18 -70 30 -129 27 -131 -2 -3 -58 -15 -123
-28 -126 -25 -251 -58 -372 -100 -41 -14 -76 -24 -77 -22 -2 1 -18 62 -38 135
l-35 132 35 15 c141 59 390 120 505 124 l47 1 31 -126z"/>
<path d="M3357 9063 c-3 -4 -14 -40 -26 -80 l-22 -72 -71 -3 c-41 -2 -73 -8
-75 -14 -2 -6 22 -30 53 -54 38 -28 54 -47 51 -59 -52 -185 -49 -196 40 -129
32 24 63 48 70 52 7 4 39 -14 77 -44 98 -77 110 -68 67 50 l-30 81 60 46 c33
26 58 51 56 57 -2 6 -39 13 -81 16 l-78 5 -27 75 c-25 68 -50 97 -64 73z"/>
<path d="M8984 8581 c-64 -28 -73 -134 -15 -178 9 -7 38 -13 64 -13 65 0 97
30 97 94 0 60 -30 96 -85 101 -22 3 -50 1 -61 -4z m80 -67 c26 -25 18 -54 -17
-67 -22 -8 -52 6 -61 28 -16 44 44 74 78 39z"/>
<path d="M1034 8370 c-155 -42 -390 -155 -801 -385 l-233 -130 0 -101 c0 -94
3 -110 36 -195 20 -52 58 -155 84 -229 26 -74 54 -139 62 -143 9 -6 52 4 129
32 116 42 451 141 476 141 9 0 12 -8 9 -22 -13 -60 -98 -570 -116 -696 -27
-189 -26 -240 3 -283 102 -151 484 -252 1281 -339 171 -18 423 -23 538 -11
166 18 243 48 291 113 25 34 46 196 84 640 15 180 31 328 36 328 15 0 265
-149 400 -237 97 -64 134 -83 150 -79 14 4 50 50 97 123 41 64 123 182 182
262 60 80 108 150 108 156 0 10 -413 408 -545 526 -216 193 -387 311 -502 345
-45 14 -47 13 -135 -26 -302 -136 -573 -163 -870 -85 -181 47 -327 121 -481
245 l-88 70 -62 -1 c-34 0 -94 -9 -133 -19z m211 -90 c165 -143 376 -246 605
-296 120 -27 410 -27 530 0 100 22 217 61 314 105 69 31 69 32 117 16 27 -9
51 -20 54 -25 9 -14 -61 -67 -137 -104 -207 -102 -534 -130 -896 -76 -307 45
-481 127 -663 313 -44 44 -79 84 -79 88 0 9 30 16 77 18 24 1 43 -9 78 -39z
m-199 -47 c103 -125 220 -220 354 -288 110 -55 214 -88 375 -116 115 -21 161
-24 395 -24 254 0 270 1 379 27 134 32 274 96 344 158 l48 43 67 -46 c93 -64
225 -179 438 -380 l182 -171 -54 -59 c-58 -65 -134 -171 -228 -318 l-61 -97
-194 115 c-223 132 -241 136 -253 63 -4 -25 -19 -182 -33 -350 -30 -366 -43
-473 -56 -481 -12 -7 -162 -27 -289 -39 -137 -12 -552 -4 -710 15 -361 42
-662 121 -899 237 l-103 51 6 58 c4 32 25 163 47 291 69 411 82 496 76 512
-10 26 -49 19 -271 -44 -116 -33 -213 -57 -216 -53 -4 5 -26 67 -50 138 -23
72 -67 187 -96 257 -30 70 -54 131 -54 136 0 9 336 196 500 278 118 59 286
132 306 133 7 1 29 -20 50 -46z m-880 -515 c53 -126 144 -381 144 -404 0 -14
-14 -22 -66 -38 -19 -6 -24 3 -54 86 -18 51 -62 166 -97 256 -36 90 -63 165
-61 166 22 15 74 46 80 46 3 0 28 -51 54 -112z m3510 -522 c-46 -61 -116 -160
-156 -221 -41 -60 -75 -112 -76 -113 -2 -2 -23 10 -48 27 l-45 31 51 83 c103
166 168 255 247 340 l35 37 37 -36 37 -36 -82 -112z m-2866 -741 c274 -138
708 -240 1105 -260 66 -3 152 -8 190 -10 106 -5 448 13 550 29 49 9 90 14 91
13 1 -1 -1 -17 -3 -35 -10 -62 -94 -95 -288 -112 -153 -14 -354 -2 -705 41
-373 46 -582 86 -765 146 -174 57 -255 115 -255 184 0 21 2 39 5 39 3 0 37
-16 75 -35z"/>
<path d="M6735 8103 c-214 -506 -451 -1024 -660 -1444 -30 -59 -46 -103 -42
-113 9 -23 207 -116 341 -161 148 -49 351 -99 526 -130 157 -27 444 -65 497
-65 37 0 38 3 67 101 32 110 101 184 172 184 86 0 128 -76 129 -235 l0 -105
40 -13 c66 -22 302 -69 440 -88 99 -14 196 -18 405 -18 243 0 290 2 404 22
180 33 240 52 244 79 2 12 -22 167 -53 345 -31 178 -94 583 -140 901 -45 318
-87 583 -92 588 -5 5 -142 25 -304 44 -610 73 -1249 179 -1693 281 -83 19
-160 34 -172 34 -19 0 -33 -27 -109 -207z m257 103 c352 -83 1081 -206 1578
-266 190 -23 354 -43 366 -45 17 -4 22 -16 31 -77 5 -40 8 -76 6 -80 -8 -15
-308 -6 -613 18 -323 25 -807 114 -1298 240 -138 35 -255 64 -258 64 -8 0 4
33 37 107 15 35 32 63 38 63 5 0 56 -11 113 -24z m-42 -258 c91 -23 166 -42
168 -44 7 -5 -24 -106 -53 -169 -51 -114 -103 -144 -229 -132 -64 6 -172 40
-192 61 -9 8 6 52 55 168 36 87 71 158 76 158 6 0 84 -19 175 -42z m287 -73
l22 -6 -39 -111 c-50 -144 -94 -214 -156 -253 -44 -28 -54 -30 -138 -29 -95 1
-210 25 -299 63 -45 19 -46 21 -35 46 8 18 16 24 27 19 91 -39 156 -57 228
-61 100 -7 152 9 208 65 46 46 66 84 100 195 22 69 31 87 44 83 9 -2 26 -7 38
-11z m271 -61 c105 -21 142 -33 142 -44 0 -8 -34 -183 -75 -390 -41 -206 -79
-415 -84 -464 -22 -195 32 -262 231 -283 104 -11 145 24 177 149 18 72 33 181
90 681 16 137 31 250 33 252 2 3 76 -4 163 -15 87 -11 162 -20 167 -20 4 0 8
-29 8 -64 0 -88 25 -225 53 -288 40 -89 133 -157 268 -194 49 -14 101 -19 227
-19 101 0 162 -4 162 -10 0 -39 89 -598 116 -727 5 -24 1 -27 -46 -43 -227
-75 -837 -69 -1227 14 l-78 16 -23 50 c-43 91 -101 135 -179 135 -50 0 -116
-34 -156 -81 -19 -21 -43 -39 -54 -39 -38 0 -418 70 -573 106 -196 45 -420
119 -530 174 -47 23 -90 46 -97 52 -8 6 8 49 59 156 39 81 115 242 169 357 56
119 105 209 112 208 6 -1 42 -13 78 -27 154 -58 325 -72 423 -35 97 36 171
140 232 329 33 104 32 103 53 98 9 -3 80 -18 159 -34z m341 -65 c51 -8 85 -18
88 -26 3 -8 -11 -159 -31 -336 -76 -671 -79 -682 -167 -679 -75 3 -138 22
-159 49 -23 29 -26 97 -10 203 11 68 149 775 156 798 2 7 12 11 21 8 10 -3 56
-11 102 -17z m644 -161 c3 -46 13 -104 22 -130 50 -142 224 -227 436 -214 l97
6 5 -26 c3 -16 0 -28 -9 -31 -8 -3 -85 -3 -171 -1 -128 4 -169 8 -215 25 -158
58 -203 132 -223 371 l-7 82 30 0 29 0 6 -82z m494 68 c5 -5 54 -339 50 -343
-2 -2 -40 -6 -84 -10 -101 -7 -209 15 -284 60 -73 44 -108 112 -116 223 l-6
79 219 -3 c120 -2 220 -4 221 -6z m-2697 -1013 c205 -100 489 -178 920 -254
102 -17 187 -33 189 -35 2 -2 -2 -23 -9 -48 l-12 -44 -41 5 c-459 51 -829 135
-1108 252 -117 49 -114 45 -82 119 15 34 30 61 33 59 3 -1 52 -25 110 -54z
m1735 -388 c233 -36 433 -48 706 -42 242 5 329 16 426 51 23 8 44 12 46 8 3
-4 8 -32 11 -64 l7 -56 -33 -11 c-62 -19 -197 -40 -335 -52 -239 -20 -562 2
-828 56 -193 40 -180 33 -183 94 -3 48 -1 53 15 47 10 -4 86 -18 168 -31z"/>
<path d="M7825 7975 c-14 -13 -25 -36 -25 -50 0 -35 42 -75 77 -75 47 0 73 25
73 70 0 71 -76 105 -125 55z"/>
<path d="M19845 8166 c-77 -40 -228 -122 -335 -183 -107 -61 -214 -120 -238
-132 -24 -12 -45 -28 -48 -36 -3 -8 24 -89 61 -180 37 -92 89 -228 115 -303
26 -75 54 -141 62 -146 10 -6 50 4 124 31 60 22 178 60 262 84 l152 43 0 38
c0 21 -3 38 -6 38 -4 0 -77 -20 -162 -45 -85 -25 -158 -42 -162 -38 -4 4 -26
67 -50 138 -23 72 -67 187 -96 257 -30 70 -54 131 -54 136 0 8 331 193 458
256 71 36 72 37 72 76 0 22 -3 40 -7 40 -5 0 -71 -33 -148 -74z m-399 -448
c53 -126 144 -381 144 -404 0 -14 -14 -22 -66 -38 -19 -6 -24 3 -54 86 -18 51
-62 166 -97 256 -36 90 -63 165 -61 166 22 15 74 46 80 46 3 0 28 -51 54 -112z"/>
<path d="M10804 7897 c-134 -44 -276 -161 -330 -272 -25 -51 -30 -74 -32 -157
l-4 -96 -45 15 c-31 11 -69 14 -128 11 -72 -4 -95 -10 -160 -42 -98 -49 -201
-150 -247 -244 -29 -59 -33 -76 -32 -148 0 -74 4 -90 37 -156 57 -116 193
-242 324 -300 66 -29 169 -34 298 -13 139 22 241 23 286 1 19 -9 58 -36 86
-61 28 -25 60 -45 71 -45 40 0 295 -299 677 -795 195 -253 311 -391 450 -533
184 -190 304 -270 414 -279 73 -5 100 10 119 66 36 109 -36 278 -229 532 -32
42 -178 217 -325 390 -446 525 -720 878 -716 923 1 11 -17 57 -41 101 -56 108
-55 152 7 330 76 220 79 298 18 443 -58 137 -157 254 -263 308 -64 32 -170 42
-235 21z m204 -91 c95 -48 188 -166 237 -301 38 -103 32 -167 -30 -345 -33
-96 -48 -157 -52 -211 -5 -72 -4 -81 28 -150 26 -56 30 -74 20 -77 -8 -3 -39
-18 -69 -34 -30 -15 -56 -27 -57 -26 -2 2 -21 48 -44 103 l-42 101 -150 123
c-249 206 -324 306 -336 449 -8 100 21 167 107 254 128 128 275 171 388 114z
m-588 -512 c49 -22 65 -35 81 -66 11 -22 53 -74 93 -116 58 -61 90 -108 157
-231 l83 -153 92 -60 93 -61 -52 -58 c-28 -33 -53 -59 -55 -59 -2 0 -18 11
-34 25 -85 72 -179 88 -357 61 -144 -22 -255 -21 -308 4 -110 49 -234 164
-282 262 -38 76 -42 158 -10 227 44 98 163 204 271 243 70 25 147 19 228 -18z
m469 -433 c34 -29 81 -101 81 -127 0 -3 -19 8 -42 25 -28 19 -55 51 -77 92
-35 65 -32 66 38 10z m407 -283 c69 -102 235 -316 385 -498 131 -159 175 -211
409 -486 223 -262 318 -391 383 -520 37 -73 64 -160 54 -170 -6 -6 -107 98
-248 252 -219 242 -627 692 -713 788 -54 61 -131 147 -171 191 -228 253 -215
235 -250 344 -30 92 -31 101 -16 115 15 14 98 55 112 56 3 0 28 -33 55 -72z
m-209 -150 c15 -53 34 -93 52 -113 15 -16 83 -93 151 -170 68 -77 149 -167
179 -200 31 -33 132 -146 226 -250 154 -172 695 -766 720 -790 6 -5 19 -21 30
-34 l20 -23 -40 16 c-88 37 -155 87 -281 211 -136 134 -307 334 -479 560 -239
314 -478 605 -604 738 l-74 77 28 40 c18 26 32 37 38 31 5 -5 20 -47 34 -93z"/>
<path d="M10782 7644 c-58 -29 -113 -92 -133 -151 -17 -53 -6 -145 24 -196 76
-129 217 -178 338 -117 88 46 142 129 142 220 0 194 -203 328 -371 244z m173
-63 c115 -52 159 -191 88 -279 -77 -95 -191 -97 -275 -4 -72 80 -71 174 3 244
60 57 118 69 184 39z"/>
<path d="M10202 7164 c-168 -83 -191 -295 -47 -422 106 -93 241 -90 342 7 49
46 75 105 76 170 1 194 -203 329 -371 245z m166 -60 c72 -30 132 -111 132
-179 0 -111 -127 -201 -233 -166 -48 16 -113 89 -127 142 -21 78 23 163 105
200 49 23 75 23 123 3z"/>
<path d="M11225 6485 c-38 -37 -28 -87 21 -105 38 -15 94 22 94 61 0 26 -44
69 -70 69 -11 0 -32 -11 -45 -25z"/>
<path d="M12144 7171 c-33 -14 -54 -51 -54 -94 0 -86 110 -131 177 -73 39 34
40 103 2 142 -28 28 -89 40 -125 25z m84 -63 c21 -21 14 -58 -14 -68 -36 -14
-64 3 -64 39 0 15 3 31 7 34 11 11 58 8 71 -5z"/>
<path d="M17017 7120 c-116 -92 -42 -272 106 -256 90 10 134 64 125 157 -4 40
-12 58 -36 82 -28 28 -39 32 -99 35 -58 3 -72 1 -96 -18z m153 -55 c39 -35 29
-113 -16 -134 -86 -39 -167 39 -123 120 21 40 101 48 139 14z"/>
<path d="M19990 6857 c0 -7 -11 -90 -25 -185 -35 -242 -32 -299 19 -341 14
-12 16 13 16 263 0 152 -2 276 -5 276 -3 0 -5 -6 -5 -13z"/>
<path d="M17185 6193 c-318 -27 -684 -116 -938 -228 -131 -57 -291 -156 -296
-182 -1 -10 -46 -166 -98 -348 -158 -551 -209 -786 -220 -1015 -10 -213 26
-349 113 -430 66 -61 104 -74 219 -74 119 0 176 14 369 91 195 77 212 78 406
15 226 -74 295 -92 390 -99 161 -11 292 31 540 174 259 149 281 155 600 158
192 2 245 5 290 20 87 27 149 63 207 117 162 154 150 371 -41 718 -35 63 -120
221 -189 350 -214 404 -347 626 -390 654 -31 21 -173 51 -327 71 -114 14 -509
19 -635 8z m556 -73 c107 -11 244 -33 314 -52 l39 -10 -39 -25 c-206 -127
-710 -253 -1230 -307 -137 -14 -494 -18 -574 -7 -108 16 -196 48 -182 65 20
24 225 124 338 165 215 78 529 147 773 170 137 12 441 13 561 1z m457 -201
c47 -76 51 -67 -53 -136 -145 -97 -370 -192 -593 -249 -175 -45 -182 -45 -182
4 0 37 -15 139 -24 170 -5 14 18 22 143 49 267 59 466 127 593 203 34 21 66
36 69 32 3 -4 24 -37 47 -73z m185 -329 c356 -662 352 -653 388 -760 77 -230
25 -367 -177 -462 l-69 -32 -260 -7 c-148 -3 -284 -12 -315 -19 -74 -17 -170
-62 -326 -153 -218 -127 -312 -160 -454 -160 -97 0 -148 12 -382 89 -236 77
-275 76 -488 -11 -278 -114 -444 -117 -526 -9 -95 124 -91 408 11 833 42 174
143 533 153 543 4 4 46 -6 93 -22 303 -105 665 -110 1244 -19 381 59 691 168
920 323 44 30 83 51 87 47 3 -3 49 -85 101 -181z m-2198 61 c114 -20 221 -22
440 -12 226 11 395 29 545 56 47 8 88 15 91 15 4 0 11 -26 17 -57 15 -78 25
-173 20 -173 -3 0 -83 -11 -179 -24 -479 -67 -763 -59 -1041 30 -59 19 -109
38 -112 43 -3 4 2 30 10 57 8 27 19 66 24 86 l10 36 58 -23 c31 -13 84 -28
117 -34z"/>
<path d="M17060 5620 c-30 -30 -27 -83 6 -109 31 -25 55 -26 93 -6 44 22 50
74 13 118 -21 24 -86 23 -112 -3z"/>
<path d="M0 5940 c0 -23 5 -31 24 -36 79 -19 79 -139 0 -158 -18 -5 -24 -13
-24 -35 0 -27 2 -29 33 -22 76 18 107 57 107 136 0 74 -38 121 -112 139 -26 6
-28 4 -28 -24z"/>
<path d="M19210 5953 c-72 -37 -99 -120 -62 -192 27 -54 64 -75 125 -75 98 2
147 49 147 139 0 81 -46 130 -132 141 -30 4 -53 0 -78 -13z m132 -71 c28 -28
28 -87 0 -115 -32 -32 -106 -31 -133 2 -28 34 -25 86 7 118 22 21 32 25 66 20
23 -3 50 -14 60 -25z"/>
<path d="M10059 5831 c-25 -25 -29 -37 -29 -81 0 -46 4 -56 34 -86 30 -30 40
-34 86 -34 46 0 56 4 86 34 29 29 34 41 34 81 0 40 -5 52 -34 81 -31 31 -40
34 -91 34 -49 0 -60 -4 -86 -29z m129 -37 c26 -18 31 -74 8 -93 -45 -38 -124
4 -111 58 12 49 60 65 103 35z"/>
<path d="M1325 5786 c-153 -31 -253 -84 -360 -191 -139 -139 -213 -316 -269
-647 -6 -34 -11 -39 -49 -49 -140 -38 -241 -145 -307 -326 -72 -200 -97 -404
-66 -537 62 -261 271 -409 738 -520 781 -187 1275 -125 1424 179 14 30 37 109
52 177 22 106 26 148 26 308 1 171 -1 189 -22 243 -13 32 -38 76 -56 100 -30
39 -101 100 -126 109 -9 3 -6 40 11 138 29 176 33 432 6 529 -62 229 -253 383
-579 466 -128 33 -317 42 -423 21z m250 -137 c351 -43 536 -169 601 -409 12
-46 18 -105 18 -200 1 -127 -19 -326 -33 -334 -4 -3 -38 4 -76 15 -224 63
-1039 199 -1192 199 -62 0 -61 -1 -38 112 39 185 120 366 209 465 77 84 183
137 306 153 83 11 107 11 205 -1z"/>
<path d="M6620 5761 c-295 -42 -539 -247 -706 -595 -223 -465 -248 -1093 -58
-1495 83 -177 184 -289 336 -374 l86 -48 -14 -62 c-26 -108 -52 -193 -179
-572 -75 -225 -134 -420 -150 -499 -63 -300 -3 -413 245 -460 165 -32 239 -18
315 59 101 100 115 201 135 950 11 380 20 493 42 506 7 5 29 9 48 9 54 0 147
27 229 66 321 151 577 545 671 1029 101 525 -10 1014 -287 1264 -173 156 -487
254 -713 222z m365 -115 c153 -51 226 -95 320 -190 187 -188 275 -447 275
-808 0 -629 -312 -1213 -729 -1362 -80 -29 -95 -31 -221 -31 -129 0 -139 2
-237 36 -251 89 -386 213 -486 449 -190 450 -115 1138 172 1566 113 171 267
298 418 347 107 35 111 36 253 33 114 -3 135 -6 235 -40z m-540 -2451 c33 -7
77 -16 99 -20 l38 -6 -6 -62 c-13 -139 -17 -239 -26 -607 -10 -430 -24 -576
-67 -673 -32 -70 -57 -92 -127 -108 -46 -10 -68 -9 -156 9 -280 56 -283 144
-35 887 73 220 143 441 155 490 30 124 28 118 48 110 9 -3 44 -12 77 -20z"/>
<path d="M6551 5494 c-126 -34 -267 -133 -365 -257 -60 -77 -152 -249 -185
-346 -141 -416 -115 -883 64 -1161 85 -131 198 -215 369 -272 375 -126 717 79
919 552 148 348 156 810 18 1095 -48 100 -116 192 -184 246 -66 53 -194 114
-293 139 -93 24 -262 26 -343 4z m154 -319 c0 -28 -6 -32 -160 -102 -88 -39
-170 -72 -182 -73 -29 0 -47 31 -30 54 18 24 317 157 347 154 20 -3 25 -8 25
-33z m221 -221 c4 -14 3 -29 -2 -34 -5 -5 -136 -70 -292 -145 -181 -87 -290
-134 -302 -130 -21 7 -32 29 -24 49 7 17 561 286 591 286 16 0 25 -8 29 -26z
m329 -47 c13 -10 16 -21 11 -38 -5 -20 -94 -67 -550 -292 -480 -237 -546 -268
-565 -257 -15 7 -21 19 -19 33 2 18 98 69 548 294 300 149 548 272 551 272 3
1 13 -5 24 -12z m-131 -339 c7 -13 8 -23 1 -34 -13 -21 -682 -344 -712 -344
-29 0 -47 31 -30 53 16 22 687 346 711 344 10 -1 24 -10 30 -19z m-39 -404 c9
-9 15 -24 13 -33 -3 -14 -440 -245 -570 -300 -45 -19 -49 -19 -68 -3 -15 12
-19 23 -14 36 5 12 113 71 308 167 166 82 304 148 308 149 4 0 14 -7 23 -16z
m-81 -236 c7 -12 8 -23 1 -34 -12 -19 -284 -146 -304 -142 -23 5 -37 36 -25
55 13 21 272 142 298 140 10 -1 24 -10 30 -19z"/>
<path d="M6232 2533 c-34 -66 -125 -384 -138 -479 -21 -161 134 -266 266 -180
46 30 68 69 50 91 -18 21 -25 19 -57 -15 -78 -84 -200 -35 -196 78 1 59 31
177 89 355 36 110 43 141 34 153 -17 19 -37 18 -48 -3z"/>
<path d="M5081 5492 c-71 -35 -99 -116 -65 -187 24 -51 66 -75 132 -75 95 0
142 44 142 135 0 64 -23 103 -73 126 -53 23 -92 24 -136 1z m123 -64 c59 -52
33 -132 -46 -145 -32 -5 -41 -1 -68 25 -38 39 -40 83 -5 117 32 33 84 33 119
3z"/>
<path d="M2921 5356 c-32 -18 -50 -53 -51 -99 0 -78 39 -116 121 -117 49 0 61
4 88 29 27 25 31 36 31 81 0 46 -4 56 -34 86 -29 29 -40 34 -82 34 -27 -1 -60
-7 -73 -14z m115 -59 c26 -27 26 -56 0 -82 -29 -29 -56 -32 -84 -7 -34 29 -37
58 -7 88 20 20 32 24 53 19 15 -3 32 -12 38 -18z"/>
<path d="M10878 5246 c-54 -19 -127 -68 -176 -119 l-44 -44 -65 33 c-83 41
-181 59 -247 44 -113 -25 -195 -90 -383 -302 -52 -59 -131 -135 -174 -169 -54
-43 -79 -69 -79 -84 0 -24 177 -224 270 -305 204 -176 398 -250 654 -250 494
0 819 211 1041 673 72 148 71 163 -9 194 -93 36 -147 67 -325 187 -91 62 -192
122 -224 134 -67 25 -180 29 -239 8z m231 -138 c63 -30 113 -83 109 -116 -4
-38 -49 -43 -72 -8 -20 31 -83 65 -139 74 -33 6 -43 12 -45 30 -8 56 52 64
147 20z m-841 -755 c31 -20 87 -50 126 -66 61 -26 87 -31 183 -35 101 -4 113
-6 119 -24 10 -32 -18 -50 -87 -55 -117 -9 -253 32 -381 115 -64 41 -73 54
-58 83 15 27 36 24 98 -18z"/>
<path d="M4000 5095 c-222 -31 -340 -71 -393 -134 -39 -46 -41 -68 -27 -217
22 -228 3 -309 -90 -383 -27 -22 -132 -81 -232 -132 -169 -85 -189 -98 -259
-169 -100 -100 -119 -148 -119 -295 0 -108 15 -200 50 -307 36 -110 145 -319
236 -453 48 -71 118 -175 155 -230 119 -177 133 -241 100 -462 -27 -174 -43
-239 -133 -513 -188 -580 -203 -810 -62 -1001 63 -86 215 -168 400 -215 167
-42 347 -47 699 -19 l91 8 27 -264 27 -263 -27 -23 -28 -22 138 -1 c147 0 163
6 98 41 -18 10 -35 19 -37 22 -5 5 -54 458 -54 499 0 31 -18 26 212 58 280 39
489 107 650 213 218 142 286 256 275 457 -9 172 -83 348 -292 700 -162 271
-196 336 -255 484 -106 265 -103 306 38 646 74 180 105 269 136 399 50 206 57
382 20 542 -37 165 -174 277 -399 330 -171 40 -303 81 -353 110 -85 48 -119
128 -147 342 -8 65 -21 130 -29 145 -53 102 -191 138 -416 107z m295 -91 c84
-44 76 -126 -17 -169 -149 -68 -567 -82 -618 -20 -15 18 -19 58 -7 80 18 35
51 54 132 80 179 56 431 70 510 29z m98 -295 c30 -157 77 -228 185 -283 57
-29 184 -68 307 -95 83 -18 183 -50 212 -69 9 -5 4 -24 -18 -67 -43 -88 -62
-190 -57 -310 5 -113 27 -178 80 -232 36 -37 63 -42 78 -13 8 15 5 25 -20 53
-63 72 -84 198 -56 337 10 46 29 105 42 133 l25 49 26 -23 c65 -62 97 -178 96
-354 -2 -203 -44 -369 -184 -716 -108 -266 -124 -349 -95 -474 8 -33 14 -61
13 -61 -18 -16 -154 -81 -224 -108 -229 -87 -484 -130 -778 -130 -215 -1 -290
7 -436 45 l-76 20 -6 87 c-8 141 -22 169 -263 526 -207 305 -294 528 -294 749
0 66 5 92 25 135 l25 54 29 -21 c144 -103 192 -324 108 -498 -24 -49 -17 -75
21 -81 43 -7 92 139 92 273 0 150 -53 264 -161 352 l-40 31 48 37 c26 20 111
68 189 106 177 87 248 132 302 194 43 48 72 121 72 178 0 26 3 29 23 23 78
-24 150 -29 256 -20 122 11 157 27 135 62 -9 13 -24 17 -60 16 -231 -7 -266
-5 -310 17 -40 19 -44 24 -44 58 l0 38 52 -13 c135 -36 486 -3 598 55 30 15
57 29 60 29 3 1 13 -39 23 -89z m692 -2271 c44 -114 97 -216 237 -451 153
-261 228 -406 270 -530 27 -78 32 -107 32 -192 1 -89 -2 -107 -26 -158 -63
-133 -284 -282 -523 -352 -116 -34 -310 -66 -605 -101 -198 -24 -273 -28 -480
-28 -234 0 -249 1 -345 27 -126 34 -270 103 -329 157 -25 23 -58 68 -73 99
-27 54 -28 61 -28 216 1 187 12 240 121 581 100 312 121 388 144 513 11 63 20
116 20 117 0 2 21 -3 48 -11 141 -41 223 -50 477 -50 278 0 368 10 600 70 151
39 235 70 343 125 42 21 80 39 83 40 3 0 18 -33 34 -72z"/>
<path d="M4846 3654 c-4 -10 8 -33 34 -64 148 -177 145 -409 -8 -521 -67 -49
-115 -62 -262 -68 -129 -6 -135 -7 -138 -28 -4 -29 17 -34 135 -34 209 1 343
72 411 219 64 140 27 334 -89 466 -42 47 -72 58 -83 30z"/>
<path d="M3877 3573 c-20 -19 -3 -42 48 -67 94 -46 162 -147 181 -266 4 -22
12 -44 19 -50 20 -17 45 -1 45 29 0 35 -27 125 -52 175 -50 98 -206 214 -241
179z"/>
<path d="M3360 3241 c0 -22 9 -67 19 -100 39 -124 124 -217 238 -262 65 -24
234 -36 313 -22 39 7 45 12 45 33 l0 24 -145 1 c-138 0 -148 1 -205 28 -72 34
-128 86 -160 148 -22 42 -31 72 -50 162 -4 21 -11 27 -30 27 -22 0 -25 -4 -25
-39z"/>
<path d="M3314 1155 c-20 -52 36 -175 116 -255 90 -90 234 -150 361 -150 60 0
74 10 57 43 -7 13 -21 17 -62 17 -99 0 -225 51 -302 122 -54 50 -82 94 -109
173 -21 60 -49 83 -61 50z"/>
<path d="M3490 1155 c-31 -37 32 -142 115 -190 55 -33 132 -44 141 -21 8 21
-13 46 -38 46 -31 0 -115 48 -136 78 -12 15 -24 41 -28 58 -11 43 -32 55 -54
29z"/>
<path d="M19987 5010 c-14 -96 -16 -99 -61 -111 -139 -38 -240 -145 -306 -326
-72 -200 -97 -404 -66 -537 42 -177 148 -295 356 -396 l85 -41 3 366 c4 569
-2 1108 -11 1045z"/>
<path d="M14844 4820 c-74 -30 -80 -159 -10 -206 32 -20 90 -23 132 -6 82 34
85 165 4 207 -32 16 -92 19 -126 5z m111 -66 c25 -25 16 -75 -17 -93 -56 -32
-117 24 -90 84 10 21 18 25 51 25 23 0 46 -7 56 -16z"/>
<path d="M8020 4699 c-58 -26 -80 -54 -79 -104 0 -22 42 -200 93 -395 l93
-355 -26 -22 -26 -21 58 -229 c32 -125 58 -233 57 -239 0 -6 -13 -17 -30 -24
-16 -7 -34 -18 -40 -25 -7 -8 37 -193 150 -630 89 -340 165 -624 171 -631 18
-22 137 -37 245 -31 252 16 504 108 618 226 l39 40 -157 608 c-86 334 -161
618 -166 631 -8 18 -17 22 -57 22 l-48 0 -60 233 c-59 229 -60 232 -88 235
-15 2 -31 11 -36 20 -4 9 -41 134 -81 277 -71 257 -73 260 -114 299 -49 46
-155 101 -233 121 -85 22 -227 19 -283 -6z m724 -806 c4 -16 9 -35 12 -44 4
-14 -6 -18 -58 -24 -106 -11 -287 -54 -406 -94 -62 -21 -114 -35 -116 -32 -2
3 -7 22 -11 42 l-7 36 74 30 c143 60 347 111 449 112 54 1 57 0 63 -26z m65
-250 c33 -132 33 -142 -13 -143 -39 0 -286 -61 -406 -99 -68 -22 -125 -39
-126 -38 -1 1 -18 62 -37 135 l-35 132 34 15 c141 59 391 120 505 124 l47 1
31 -127z"/>
<path d="M12997 4363 c-3 -4 -14 -40 -26 -80 l-22 -72 -71 -3 c-41 -2 -73 -8
-75 -14 -2 -6 22 -30 53 -54 38 -29 54 -47 51 -59 -53 -178 -48 -196 40 -129
32 24 63 48 70 52 7 4 39 -14 77 -44 98 -77 110 -68 67 50 l-30 81 60 46 c33
26 58 51 56 57 -2 6 -39 13 -81 16 l-78 5 -27 75 c-25 68 -50 97 -64 73z"/>
<path d="M18624 3881 c-64 -28 -73 -134 -15 -178 9 -7 38 -13 64 -13 65 0 97
30 97 94 0 60 -30 96 -85 101 -22 3 -50 1 -61 -4z m80 -67 c26 -25 18 -54 -17
-67 -22 -8 -52 6 -61 28 -16 44 44 74 78 39z"/>
<path d="M10675 3670 c-150 -40 -379 -149 -730 -345 -115 -65 -243 -136 -283
-158 -41 -22 -76 -46 -79 -53 -3 -8 23 -82 57 -166 35 -84 86 -220 115 -303
29 -82 59 -154 67 -159 10 -6 42 1 99 23 87 33 481 151 506 151 9 0 12 -8 9
-22 -13 -60 -98 -570 -116 -696 -11 -79 -20 -169 -20 -201 0 -53 3 -62 39
-103 111 -125 417 -212 1014 -288 660 -84 981 -62 1080 72 25 34 46 191 83
636 15 182 32 332 37 332 15 0 265 -148 400 -237 98 -65 134 -83 152 -79 12 3
25 13 29 21 10 28 146 227 249 365 55 74 102 141 104 150 5 18 -457 463 -652
626 -155 130 -299 222 -392 250 -45 14 -47 13 -135 -26 -302 -136 -573 -163
-870 -85 -181 47 -327 121 -481 245 l-88 70 -62 -1 c-34 0 -93 -9 -132 -19z
m217 -96 c161 -138 374 -242 598 -290 119 -26 410 -26 528 -1 97 21 219 62
316 106 69 31 69 32 117 16 27 -9 51 -20 54 -25 8 -13 -60 -67 -125 -100 -128
-64 -360 -110 -558 -110 -112 0 -329 22 -449 45 -169 32 -313 92 -432 180 -61
45 -211 192 -211 206 0 9 31 16 77 18 24 1 44 -10 85 -45z m-188 -61 c145
-170 309 -278 517 -341 258 -79 712 -97 968 -38 134 30 272 93 343 156 l48 42
37 -23 c90 -56 289 -228 529 -458 l120 -116 -69 -80 c-60 -70 -133 -174 -243
-347 l-29 -47 -45 28 c-25 16 -112 67 -193 115 -139 81 -188 99 -202 76 -3 -6
-13 -83 -21 -173 -8 -89 -25 -280 -38 -425 -13 -145 -26 -265 -29 -268 -11
-11 -169 -33 -318 -45 -181 -14 -502 -6 -694 16 -356 42 -658 122 -894 237
l-103 51 6 56 c4 31 24 162 46 291 71 415 83 498 77 514 -10 26 -52 19 -271
-44 -114 -33 -211 -58 -216 -55 -4 2 -13 26 -20 52 -16 58 -106 299 -151 405
-18 43 -31 80 -28 82 11 11 364 203 481 262 130 66 303 142 324 143 5 1 36
-29 68 -66z m-921 -440 c62 -139 167 -429 167 -460 0 -13 -15 -21 -66 -37 -19
-6 -24 2 -54 86 -18 51 -62 166 -97 256 -36 90 -63 165 -61 166 21 15 74 46
79 46 4 0 18 -26 32 -57z m3522 -592 c-51 -69 -121 -169 -155 -221 -35 -52
-64 -97 -66 -98 -1 -2 -23 10 -48 27 l-45 32 78 122 c90 144 140 212 206 285
l48 53 37 -36 38 -37 -93 -127z m-2866 -721 c227 -114 540 -201 883 -245 285
-36 753 -36 973 0 49 8 91 13 92 11 2 -1 0 -17 -3 -35 -13 -62 -98 -95 -290
-111 -314 -27 -1110 73 -1454 182 -186 60 -270 118 -270 189 0 21 2 39 5 39 3
0 32 -13 64 -30z"/>
<path d="M16389 3438 c-211 -502 -464 -1058 -674 -1479 -30 -59 -46 -103 -42
-113 9 -23 207 -116 341 -161 148 -49 351 -99 526 -130 157 -27 444 -65 497
-65 37 0 38 3 67 101 32 110 101 184 172 184 86 0 128 -76 129 -235 l0 -105
40 -13 c66 -22 302 -69 440 -88 99 -14 196 -18 405 -18 243 0 290 2 404 22 70
13 154 31 185 41 l56 17 -2 55 c-1 30 -25 181 -52 337 -28 155 -62 365 -76
465 -91 641 -145 991 -152 998 -5 5 -142 25 -304 44 -610 73 -1249 179 -1693
281 -83 19 -160 34 -172 34 -19 0 -32 -23 -95 -172z m316 52 c416 -91 1072
-199 1545 -255 168 -20 314 -38 326 -40 17 -4 22 -16 31 -77 5 -40 8 -76 6
-80 -8 -15 -308 -6 -613 18 -323 25 -807 114 -1298 240 -138 35 -255 64 -258
64 -8 0 4 33 37 107 15 35 32 63 36 63 4 0 89 -18 188 -40z m-118 -241 c87
-22 162 -44 166 -49 11 -10 -19 -112 -54 -181 -50 -100 -103 -127 -223 -116
-63 6 -171 40 -193 61 -9 8 4 48 55 168 37 87 72 158 79 158 7 0 83 -18 170
-41z m285 -73 l27 -6 -35 -102 c-75 -215 -128 -277 -251 -294 -80 -10 -240 21
-356 70 -35 14 -36 16 -25 41 8 18 16 24 27 19 90 -39 156 -57 227 -61 100 -7
142 6 202 60 52 49 71 84 107 199 16 51 32 85 38 83 7 -2 24 -6 39 -9z m281
-62 c101 -21 137 -33 137 -44 0 -8 -34 -183 -75 -390 -41 -206 -79 -415 -84
-464 -18 -160 13 -229 120 -260 128 -39 210 -31 248 23 43 60 55 130 115 655
24 207 45 379 48 381 2 2 76 -4 163 -15 87 -11 162 -20 167 -20 4 0 8 -29 8
-64 0 -84 26 -227 51 -287 38 -87 136 -158 270 -195 49 -14 101 -19 227 -19
101 0 162 -4 162 -10 0 -39 89 -598 116 -727 5 -24 1 -27 -46 -43 -228 -76
-809 -70 -1220 13 l-85 17 -23 50 c-43 91 -101 135 -179 135 -50 0 -116 -34
-156 -81 -19 -21 -43 -39 -54 -39 -38 0 -418 70 -573 106 -196 45 -420 119
-530 174 -47 23 -90 46 -96 51 -8 7 35 109 150 352 90 188 166 350 169 361 5
13 12 16 25 11 192 -82 382 -107 496 -64 97 36 172 142 231 329 34 105 33 103
59 97 11 -2 83 -17 159 -33z m336 -65 c51 -8 85 -18 88 -26 3 -8 -11 -159 -31
-336 -76 -671 -79 -682 -167 -679 -75 3 -138 22 -159 49 -23 29 -26 97 -10
203 11 67 148 775 156 798 2 7 12 11 21 8 10 -3 56 -11 102 -17z m644 -161 c3
-46 13 -104 22 -129 50 -143 225 -228 438 -215 80 5 97 4 97 -8 0 -8 3 -22 6
-31 6 -16 -7 -17 -167 -13 -192 5 -246 18 -334 78 -71 49 -105 138 -120 318
l-7 82 30 0 29 0 6 -82z m494 69 c5 -5 53 -340 50 -344 -2 -2 -40 -6 -84 -10
-101 -7 -209 15 -284 60 -73 44 -108 112 -116 223 l-6 79 219 -3 c120 -2 220
-4 221 -5z m-2697 -1014 c205 -100 497 -181 920 -254 102 -17 187 -33 189 -35
2 -2 -2 -23 -9 -48 l-12 -44 -41 5 c-353 39 -689 105 -923 182 -94 31 -271
104 -286 119 -8 8 42 135 52 129 3 -1 52 -25 110 -54z m1735 -388 c242 -37
418 -48 697 -42 252 5 336 15 436 51 50 18 50 17 54 -64 l3 -55 -110 -22
c-305 -61 -712 -53 -1080 22 -193 40 -180 33 -183 94 -3 48 -1 53 15 47 10 -4
86 -18 168 -31z"/>
<path d="M17465 3275 c-14 -13 -25 -36 -25 -50 0 -35 42 -75 77 -75 47 0 73
25 73 70 0 71 -76 105 -125 55z"/>
<path d="M1164 3197 c-134 -44 -276 -161 -330 -272 -25 -51 -30 -74 -32 -157
l-4 -96 -45 15 c-31 11 -69 14 -128 11 -115 -6 -208 -51 -305 -149 -147 -149
-175 -294 -88 -461 53 -101 195 -227 315 -280 66 -29 169 -34 298 -13 138 22
242 22 287 1 18 -9 57 -36 85 -61 28 -25 60 -45 71 -45 36 0 262 -261 571
-660 289 -373 407 -515 545 -658 193 -199 312 -280 425 -289 73 -5 100 10 119
66 36 109 -36 278 -229 532 -32 42 -178 217 -325 390 -446 525 -720 878 -716
923 1 11 -17 57 -41 101 -56 108 -55 152 6 330 75 215 80 282 31 414 -55 146
-156 273 -266 331 -50 27 -76 34 -132 37 -41 1 -88 -3 -112 -10z m218 -99 c91
-48 185 -173 229 -306 31 -93 23 -164 -35 -332 -34 -96 -49 -157 -53 -211 -5
-72 -4 -81 28 -150 26 -56 30 -74 20 -77 -8 -3 -39 -18 -69 -34 -30 -15 -56
-27 -58 -25 -2 1 -21 47 -43 102 -23 55 -47 104 -54 111 -6 6 -66 55 -132 109
-223 183 -291 260 -326 377 -38 126 -12 224 87 329 81 84 191 139 281 139 54
0 75 -5 125 -32z m-596 -508 c36 -17 66 -39 69 -50 8 -26 74 -108 129 -162 29
-28 72 -96 127 -196 l82 -153 93 -61 92 -61 -51 -59 c-28 -32 -53 -58 -55 -58
-2 0 -18 11 -34 25 -85 71 -190 89 -360 61 -146 -24 -251 -21 -313 8 -71 33
-170 111 -218 170 -123 155 -116 295 19 433 138 140 276 174 420 103z m463
-429 c34 -29 81 -101 81 -127 0 -3 -19 8 -42 25 -28 19 -55 51 -77 92 -35 65
-32 66 38 10z m418 -298 c114 -166 429 -558 684 -853 366 -423 496 -609 529
-755 12 -52 8 -65 -12 -44 -88 92 -385 414 -483 525 -32 36 -185 204 -275 304
-58 63 -211 233 -340 378 l-235 263 -31 100 -32 99 28 20 c26 19 87 49 100 50
4 0 33 -39 67 -87z m-227 -109 c11 -36 20 -72 20 -80 0 -11 118 -155 150 -184
6 -6 149 -164 260 -290 71 -80 169 -189 180 -200 3 -3 66 -72 140 -155 74 -82
159 -177 190 -210 30 -33 98 -107 150 -165 87 -97 214 -233 250 -270 8 -8 21
-23 29 -32 12 -17 11 -17 -20 -6 -151 51 -426 329 -764 773 -241 316 -484 612
-613 747 l-65 68 24 35 c13 19 29 35 36 35 7 0 21 -30 33 -66z"/>
<path d="M1142 2944 c-162 -81 -190 -275 -58 -410 89 -92 198 -106 307 -41
121 73 156 206 90 335 -64 124 -218 177 -339 116z m173 -63 c115 -52 159 -191
88 -279 -77 -95 -191 -97 -275 -4 -72 80 -71 174 3 244 60 57 118 69 184 39z"/>
<path d="M575 2471 c-94 -42 -155 -131 -155 -223 0 -95 64 -202 148 -247 114
-61 271 -10 336 109 90 165 -43 380 -234 380 -32 0 -72 -8 -95 -19z m153 -67
c72 -30 132 -111 132 -179 0 -111 -127 -201 -233 -166 -48 16 -113 89 -127
142 -21 78 23 163 105 200 49 23 75 23 123 3z"/>
<path d="M1585 1785 c-27 -26 -31 -46 -14 -76 31 -60 129 -31 129 37 0 22 -46
64 -70 64 -11 0 -32 -11 -45 -25z"/>
<path d="M19805 2682 c-79 -27 -143 -69 -211 -139 -176 -181 -174 -387 6 -572
110 -112 227 -178 335 -188 l65 -6 0 42 0 41 -52 0 c-127 0 -318 148 -384 298
-52 115 -23 224 89 335 90 90 175 131 273 132 l74 0 0 38 0 37 -72 0 c-43 -1
-94 -8 -123 -18z"/>
<path d="M19855 2471 c-172 -78 -208 -293 -69 -421 54 -50 97 -69 161 -73 l48
-2 3 38 c3 36 3 37 -33 37 -113 0 -216 130 -186 232 25 81 121 149 191 135 29
-6 30 -6 30 33 l0 40 -52 0 c-30 0 -71 -9 -93 -19z"/>
<path d="M2504 2470 c-33 -13 -54 -50 -54 -93 0 -86 110 -131 177 -73 23 20
28 32 28 71 0 40 -5 51 -33 76 -33 30 -75 37 -118 19z m84 -62 c21 -21 14 -58
-14 -68 -36 -14 -64 3 -64 39 0 15 3 31 7 34 11 11 58 8 71 -5z"/>
<path d="M7376 2419 c-51 -40 -69 -104 -45 -166 37 -99 168 -123 245 -46 35
35 36 37 32 101 -4 59 -7 67 -41 98 -34 31 -42 34 -101 34 -49 0 -69 -5 -90
-21z m154 -54 c39 -35 29 -113 -16 -134 -86 -39 -167 39 -123 120 21 40 101
48 139 14z"/>
<path d="M7505 1489 c-429 -44 -843 -169 -1101 -331 -80 -50 -86 -56 -99 -103
-8 -27 -57 -198 -109 -380 -87 -306 -166 -618 -166 -658 0 -13 9 -17 35 -17
28 0 36 4 39 23 34 158 180 710 192 726 2 2 40 -10 86 -27 46 -16 128 -39 184
-51 102 -21 375 -43 449 -36 22 2 90 6 150 9 106 5 293 28 500 61 351 56 654
164 885 316 l89 58 65 -117 c63 -115 238 -441 342 -637 52 -99 114 -264 114
-304 0 -18 6 -21 40 -21 39 0 39 0 34 33 -19 108 -74 246 -156 392 -25 44
-104 190 -175 325 -219 413 -352 636 -396 664 -31 21 -173 51 -327 71 -135 16
-531 19 -675 4z m710 -83 c116 -17 205 -35 222 -45 16 -9 -63 -55 -177 -103
-122 -53 -302 -101 -560 -152 -258 -51 -405 -71 -610 -86 -299 -21 -506 -10
-619 32 l-55 21 25 20 c38 31 254 132 365 171 205 70 489 130 739 155 131 14
550 5 670 -13z m343 -188 l42 -67 -33 -24 c-102 -77 -268 -164 -421 -221 -113
-43 -360 -108 -390 -104 -18 3 -22 15 -32 93 -6 50 -14 99 -17 110 -6 19 5 22
142 52 267 59 471 129 595 204 33 21 64 34 67 31 3 -4 24 -37 47 -74z m-2013
-266 c203 -35 658 -15 985 43 47 8 88 15 91 15 4 0 11 -26 17 -57 14 -72 26
-173 21 -173 -2 0 -83 -11 -179 -24 -480 -67 -764 -59 -1042 30 -59 19 -109
38 -112 43 -3 4 2 30 10 57 8 27 19 66 24 86 l10 36 58 -23 c31 -13 84 -28
117 -33z"/>
<path d="M7422 924 c-33 -23 -31 -86 4 -113 31 -25 55 -26 93 -6 44 22 50 74
13 118 -19 22 -80 23 -110 1z"/>
<path d="M9570 1253 c-72 -37 -99 -120 -62 -192 27 -54 64 -75 125 -75 98 2
147 49 147 139 0 81 -46 130 -132 141 -30 4 -53 0 -78 -13z m132 -71 c28 -28
28 -87 0 -115 -32 -32 -106 -31 -133 2 -28 34 -25 86 7 118 22 21 32 25 66 20
23 -3 50 -14 60 -25z"/>
<path d="M419 1131 c-25 -25 -29 -37 -29 -81 0 -46 4 -56 34 -86 30 -30 40
-34 86 -34 46 0 56 4 86 34 29 29 34 41 34 81 0 40 -5 52 -34 81 -31 31 -40
34 -91 34 -49 0 -60 -4 -86 -29z m129 -37 c15 -10 22 -25 22 -48 0 -42 -15
-56 -62 -56 -46 0 -73 32 -62 74 11 45 60 60 102 30z"/>
<path d="M19699 1131 c-25 -25 -29 -37 -29 -81 0 -46 4 -56 34 -86 30 -30 40
-34 86 -34 46 0 56 4 86 34 29 29 34 41 34 81 0 40 -5 52 -34 81 -31 31 -40
34 -91 34 -49 0 -60 -4 -86 -29z m129 -37 c15 -10 22 -25 22 -48 0 -42 -15
-56 -62 -56 -46 0 -73 32 -62 74 11 45 60 60 102 30z"/>
<path d="M10965 1086 c-153 -31 -253 -84 -360 -191 -139 -139 -213 -316 -269
-647 -6 -34 -11 -39 -49 -49 -89 -24 -188 -96 -230 -168 l-18 -31 870 0 c479
0 871 2 871 4 0 10 -284 71 -570 121 -343 60 -590 95 -675 95 -64 0 -63 -2
-40 112 39 185 120 366 209 465 114 126 288 178 502 153 359 -43 543 -166 610
-410 23 -81 24 -331 2 -458 l-15 -82 73 0 72 0 11 63 c36 207 38 418 6 541
-58 222 -254 379 -576 460 -130 33 -318 43 -424 22z"/>
<path d="M16248 1060 c-294 -49 -529 -251 -694 -594 -60 -126 -107 -259 -134
-382 l-18 -84 38 0 39 0 11 58 c35 167 138 417 228 550 121 178 269 298 437
354 61 20 89 23 215 22 131 0 153 -3 230 -28 162 -53 246 -102 341 -196 158
-157 244 -358 271 -637 l12 -123 37 0 38 0 -5 57 c-18 223 -54 368 -129 518
-109 220 -263 356 -495 437 -128 44 -315 65 -422 48z"/>
<path d="M14721 792 c-71 -35 -99 -116 -65 -187 24 -51 66 -75 132 -75 95 0
142 44 142 135 0 64 -23 103 -73 126 -53 23 -92 24 -136 1z m123 -64 c59 -52
33 -132 -46 -145 -32 -5 -41 -1 -68 25 -38 39 -40 83 -5 117 32 33 84 33 119
3z"/>
<path d="M16191 794 c-216 -58 -415 -263 -527 -543 -24 -59 -74 -224 -74 -243
0 -5 78 -8 173 -8 l174 0 288 140 c159 77 296 140 305 140 21 0 40 -20 40 -42
0 -15 -52 -44 -222 -128 l-223 -108 153 -1 152 -1 220 110 c183 92 224 109
240 100 21 -11 26 -36 12 -57 -4 -7 -73 -44 -152 -82 l-145 -70 254 0 253 -1
-6 58 c-31 267 -133 480 -289 600 -67 52 -186 107 -284 133 -92 23 -261 25
-342 3z m154 -319 c0 -28 -6 -32 -160 -102 -88 -39 -170 -72 -182 -73 -29 0
-47 31 -30 54 18 25 317 156 347 153 20 -2 25 -7 25 -32z"/>
<path d="M12561 656 c-32 -18 -50 -53 -51 -99 0 -78 39 -116 121 -117 49 0 61
4 88 29 27 25 31 36 31 81 0 46 -4 56 -34 86 -29 29 -40 34 -82 34 -27 -1 -60
-7 -73 -14z m115 -60 c26 -25 26 -55 0 -81 -29 -29 -56 -32 -84 -7 -34 29 -37
58 -8 87 20 20 32 24 53 19 16 -4 33 -12 39 -18z"/>
<path d="M1238 546 c-54 -19 -127 -68 -176 -119 l-44 -44 -65 33 c-84 42 -180
59 -248 44 -99 -22 -159 -65 -294 -209 -69 -75 -152 -162 -184 -193 l-58 -58
929 0 929 0 32 71 c45 100 41 117 -33 146 -93 36 -147 67 -325 187 -91 62
-192 122 -224 134 -67 25 -180 29 -239 8z m231 -138 c63 -30 113 -83 109 -116
-4 -39 -50 -43 -74 -7 -21 32 -81 64 -137 73 -33 6 -43 12 -45 30 -8 56 52 64
147 20z"/>
<path d="M19892 424 c-61 -30 -90 -55 -199 -172 -71 -75 -154 -163 -186 -194
l-58 -58 275 0 276 0 0 230 c0 267 8 253 -108 194z"/>
<path d="M13640 395 c-221 -31 -340 -71 -392 -134 -38 -44 -41 -62 -33 -167
l7 -94 39 0 c26 0 39 4 39 14 0 11 8 11 52 0 79 -21 284 -18 424 6 101 17 159
37 235 78 4 1 10 -20 14 -48 7 -50 7 -50 44 -50 l36 0 -14 107 c-19 149 -27
178 -61 217 -66 75 -193 98 -390 71z m265 -78 c116 -45 121 -132 12 -182 -81
-38 -222 -59 -387 -59 -165 0 -216 13 -238 58 -27 54 19 106 121 140 42 14
161 37 252 49 66 9 212 5 240 -6z"/>
<path d="M5191 114 c-23 -17 -51 -70 -51 -99 0 -10 10 -15 30 -15 23 0 30 5
30 19 0 30 28 51 65 51 37 0 65 -21 65 -51 0 -14 7 -19 30 -19 24 0 30 4 30
20 0 34 -28 79 -60 95 -38 20 -110 19 -139 -1z"/>
<path d="M17685 10 c-12 -5 36 -8 125 -8 87 0 133 3 115 8 -41 11 -216 11
-240 0z"/>
</g>
</svg>
